%TF.GenerationSoftware,KiCad,Pcbnew,8.0.3*%
%TF.CreationDate,2024-10-02T02:13:24+09:00*%
%TF.ProjectId,AltairMDmini_V1,416c7461-6972-44d4-946d-696e695f5631,rev?*%
%TF.SameCoordinates,Original*%
%TF.FileFunction,Copper,L1,Top*%
%TF.FilePolarity,Positive*%
%FSLAX46Y46*%
G04 Gerber Fmt 4.6, Leading zero omitted, Abs format (unit mm)*
G04 Created by KiCad (PCBNEW 8.0.3) date 2024-10-02 02:13:24*
%MOMM*%
%LPD*%
G01*
G04 APERTURE LIST*
G04 Aperture macros list*
%AMRoundRect*
0 Rectangle with rounded corners*
0 $1 Rounding radius*
0 $2 $3 $4 $5 $6 $7 $8 $9 X,Y pos of 4 corners*
0 Add a 4 corners polygon primitive as box body*
4,1,4,$2,$3,$4,$5,$6,$7,$8,$9,$2,$3,0*
0 Add four circle primitives for the rounded corners*
1,1,$1+$1,$2,$3*
1,1,$1+$1,$4,$5*
1,1,$1+$1,$6,$7*
1,1,$1+$1,$8,$9*
0 Add four rect primitives between the rounded corners*
20,1,$1+$1,$2,$3,$4,$5,0*
20,1,$1+$1,$4,$5,$6,$7,0*
20,1,$1+$1,$6,$7,$8,$9,0*
20,1,$1+$1,$8,$9,$2,$3,0*%
G04 Aperture macros list end*
%TA.AperFunction,ComponentPad*%
%ADD10R,1.740000X1.740000*%
%TD*%
%TA.AperFunction,ComponentPad*%
%ADD11C,1.740000*%
%TD*%
%TA.AperFunction,SMDPad,CuDef*%
%ADD12RoundRect,0.200000X-0.275000X0.200000X-0.275000X-0.200000X0.275000X-0.200000X0.275000X0.200000X0*%
%TD*%
%TA.AperFunction,SMDPad,CuDef*%
%ADD13RoundRect,0.200000X-0.200000X-0.275000X0.200000X-0.275000X0.200000X0.275000X-0.200000X0.275000X0*%
%TD*%
%TA.AperFunction,ComponentPad*%
%ADD14C,1.400000*%
%TD*%
%TA.AperFunction,ComponentPad*%
%ADD15R,3.500000X3.500000*%
%TD*%
%TA.AperFunction,ComponentPad*%
%ADD16C,3.500000*%
%TD*%
%TA.AperFunction,ComponentPad*%
%ADD17RoundRect,0.250000X-0.725000X0.600000X-0.725000X-0.600000X0.725000X-0.600000X0.725000X0.600000X0*%
%TD*%
%TA.AperFunction,ComponentPad*%
%ADD18O,1.950000X1.700000*%
%TD*%
%TA.AperFunction,SMDPad,CuDef*%
%ADD19R,0.650000X1.250000*%
%TD*%
%TA.AperFunction,SMDPad,CuDef*%
%ADD20R,1.250000X0.650000*%
%TD*%
%TA.AperFunction,SMDPad,CuDef*%
%ADD21R,1.400000X2.000000*%
%TD*%
%TA.AperFunction,SMDPad,CuDef*%
%ADD22RoundRect,0.218750X0.256250X-0.218750X0.256250X0.218750X-0.256250X0.218750X-0.256250X-0.218750X0*%
%TD*%
%TA.AperFunction,SMDPad,CuDef*%
%ADD23RoundRect,0.218750X0.218750X0.256250X-0.218750X0.256250X-0.218750X-0.256250X0.218750X-0.256250X0*%
%TD*%
%TA.AperFunction,SMDPad,CuDef*%
%ADD24RoundRect,0.225000X-0.250000X0.225000X-0.250000X-0.225000X0.250000X-0.225000X0.250000X0.225000X0*%
%TD*%
%TA.AperFunction,SMDPad,CuDef*%
%ADD25RoundRect,0.225000X0.225000X0.250000X-0.225000X0.250000X-0.225000X-0.250000X0.225000X-0.250000X0*%
%TD*%
%TA.AperFunction,SMDPad,CuDef*%
%ADD26RoundRect,0.250000X-1.750000X-1.000000X1.750000X-1.000000X1.750000X1.000000X-1.750000X1.000000X0*%
%TD*%
%TA.AperFunction,ViaPad*%
%ADD27C,0.800000*%
%TD*%
%TA.AperFunction,Conductor*%
%ADD28C,2.540000*%
%TD*%
%TA.AperFunction,Conductor*%
%ADD29C,0.500000*%
%TD*%
%TA.AperFunction,Conductor*%
%ADD30C,1.000000*%
%TD*%
%TA.AperFunction,Conductor*%
%ADD31C,1.500000*%
%TD*%
G04 APERTURE END LIST*
D10*
%TO.P,Q4,1,G*%
%TO.N,Net-(Q4-G)*%
X139700000Y-104140000D03*
D11*
%TO.P,Q4,2,D*%
%TO.N,Net-(D8-A)*%
X139700000Y-101840000D03*
%TO.P,Q4,3,S*%
%TO.N,GND2*%
X139700000Y-99540000D03*
%TD*%
D10*
%TO.P,Q3,1,G*%
%TO.N,Net-(Q3-G)*%
X127000000Y-104140000D03*
D11*
%TO.P,Q3,2,D*%
%TO.N,+12V*%
X127000000Y-101840000D03*
%TO.P,Q3,3,S*%
%TO.N,Net-(D8-A)*%
X127000000Y-99540000D03*
%TD*%
D10*
%TO.P,Q2,1,G*%
%TO.N,Net-(Q2-G)*%
X139700000Y-114300000D03*
D11*
%TO.P,Q2,2,D*%
%TO.N,Net-(D6-A)*%
X139700000Y-112000000D03*
%TO.P,Q2,3,S*%
%TO.N,GND2*%
X139700000Y-109700000D03*
%TD*%
D10*
%TO.P,Q1,1,G*%
%TO.N,Net-(Q1-G)*%
X127000000Y-114300000D03*
D11*
%TO.P,Q1,2,D*%
%TO.N,+12V*%
X127000000Y-112000000D03*
%TO.P,Q1,3,S*%
%TO.N,Net-(D6-A)*%
X127000000Y-109700000D03*
%TD*%
D12*
%TO.P,R13,1*%
%TO.N,GND2*%
X144145000Y-100585000D03*
%TO.P,R13,2*%
%TO.N,Net-(IC3-LO)*%
X144145000Y-102235000D03*
%TD*%
%TO.P,R12,1*%
%TO.N,Net-(IC3-LO)*%
X142240000Y-102490000D03*
%TO.P,R12,2*%
%TO.N,Net-(Q4-G)*%
X142240000Y-104140000D03*
%TD*%
%TO.P,R11,1*%
%TO.N,GND2*%
X144145000Y-111380000D03*
%TO.P,R11,2*%
%TO.N,Net-(IC2-LO)*%
X144145000Y-113030000D03*
%TD*%
%TO.P,R10,1*%
%TO.N,Net-(IC2-LO)*%
X142240000Y-113285000D03*
%TO.P,R10,2*%
%TO.N,Net-(Q2-G)*%
X142240000Y-114935000D03*
%TD*%
%TO.P,R9,1*%
%TO.N,Net-(IC3-HO)*%
X123825000Y-102490000D03*
%TO.P,R9,2*%
%TO.N,Net-(Q3-G)*%
X123825000Y-104140000D03*
%TD*%
%TO.P,R8,1*%
%TO.N,Net-(IC2-HO)*%
X123825000Y-112650000D03*
%TO.P,R8,2*%
%TO.N,Net-(Q1-G)*%
X123825000Y-114300000D03*
%TD*%
D13*
%TO.P,R7,1*%
%TO.N,Net-(D8-A)*%
X144590000Y-92075000D03*
%TO.P,R7,2*%
%TO.N,Net-(IC3-HO)*%
X146240000Y-92075000D03*
%TD*%
%TO.P,R6,1*%
%TO.N,Net-(D6-A)*%
X133160000Y-92075000D03*
%TO.P,R6,2*%
%TO.N,Net-(IC2-HO)*%
X134810000Y-92075000D03*
%TD*%
%TO.P,R5,1*%
%TO.N,Ps2*%
X132970000Y-77470000D03*
%TO.P,R5,2*%
%TO.N,Net-(IC1-ANODE_2)*%
X134620000Y-77470000D03*
%TD*%
%TO.P,R4,1*%
%TO.N,Ps1*%
X132970000Y-73660000D03*
%TO.P,R4,2*%
%TO.N,Net-(IC1-ANODE_1)*%
X134620000Y-73660000D03*
%TD*%
%TO.P,R3,1*%
%TO.N,SDs*%
X123352618Y-73660000D03*
%TO.P,R3,2*%
%TO.N,Net-(D3-A)*%
X125002618Y-73660000D03*
%TD*%
%TO.P,R2,1*%
%TO.N,Ps2*%
X123330000Y-76200000D03*
%TO.P,R2,2*%
%TO.N,Net-(D2-A)*%
X124980000Y-76200000D03*
%TD*%
%TO.P,R1,1*%
%TO.N,Ps1*%
X123330000Y-78740000D03*
%TO.P,R1,2*%
%TO.N,Net-(D1-A)*%
X124980000Y-78740000D03*
%TD*%
D14*
%TO.P,J3,*%
%TO.N,*%
X153670000Y-100760000D03*
X153670000Y-111760000D03*
D15*
%TO.P,J3,1,Pin_1*%
%TO.N,Net-(D8-A)*%
X148670000Y-103760000D03*
D16*
%TO.P,J3,2,Pin_2*%
%TO.N,Net-(D6-A)*%
X148670000Y-108760000D03*
%TD*%
D14*
%TO.P,J2,*%
%TO.N,*%
X109380000Y-111778988D03*
X109380000Y-100778988D03*
D15*
%TO.P,J2,1,Pin_1*%
%TO.N,GND2*%
X119380000Y-103778988D03*
D16*
%TO.P,J2,2,Pin_2*%
%TO.N,+12V*%
X119380000Y-108778988D03*
%TD*%
D17*
%TO.P,J1,1,Pin_1*%
%TO.N,GND*%
X116565000Y-71140000D03*
D18*
%TO.P,J1,2,Pin_2*%
%TO.N,SDs*%
X116565000Y-73640000D03*
%TO.P,J1,3,Pin_3*%
%TO.N,Ps2*%
X116565000Y-76140000D03*
%TO.P,J1,4,Pin_4*%
%TO.N,Ps1*%
X116565000Y-78640000D03*
%TD*%
D19*
%TO.P,IC3,1,VCC*%
%TO.N,+12V*%
X147320000Y-84470000D03*
%TO.P,IC3,2,IN*%
%TO.N,PWM2*%
X146050000Y-84470000D03*
%TO.P,IC3,3,~{SD}*%
%TO.N,+12V*%
X144780000Y-84470000D03*
%TO.P,IC3,4,COM*%
%TO.N,GND2*%
X143510000Y-84470000D03*
%TO.P,IC3,5,LO*%
%TO.N,Net-(IC3-LO)*%
X143510000Y-90170000D03*
%TO.P,IC3,6,VS*%
%TO.N,Net-(D8-A)*%
X144780000Y-90170000D03*
%TO.P,IC3,7,HO*%
%TO.N,Net-(IC3-HO)*%
X146050000Y-90170000D03*
%TO.P,IC3,8,VB*%
%TO.N,Net-(D5-K)*%
X147320000Y-90170000D03*
%TD*%
%TO.P,IC2,1,VCC*%
%TO.N,+12V*%
X135890000Y-84470000D03*
%TO.P,IC2,2,IN*%
%TO.N,PWM1*%
X134620000Y-84470000D03*
%TO.P,IC2,3,~{SD}*%
%TO.N,+12V*%
X133350000Y-84470000D03*
%TO.P,IC2,4,COM*%
%TO.N,GND2*%
X132080000Y-84470000D03*
%TO.P,IC2,5,LO*%
%TO.N,Net-(IC2-LO)*%
X132080000Y-90170000D03*
%TO.P,IC2,6,VS*%
%TO.N,Net-(D6-A)*%
X133350000Y-90170000D03*
%TO.P,IC2,7,HO*%
%TO.N,Net-(IC2-HO)*%
X134620000Y-90170000D03*
%TO.P,IC2,8,VB*%
%TO.N,Net-(D4-K)*%
X135890000Y-90170000D03*
%TD*%
D20*
%TO.P,IC1,1,ANODE_1*%
%TO.N,Net-(IC1-ANODE_1)*%
X137160000Y-73660000D03*
%TO.P,IC1,2,CATHODE_1*%
%TO.N,GND*%
X137160000Y-74930000D03*
%TO.P,IC1,3,CATHODE_2*%
X137160000Y-76200000D03*
%TO.P,IC1,4,ANODE_2*%
%TO.N,Net-(IC1-ANODE_2)*%
X137160000Y-77470000D03*
%TO.P,IC1,5,GND*%
%TO.N,GND2*%
X142860000Y-77470000D03*
%TO.P,IC1,6,VO2_(OUTPUT_2)*%
%TO.N,PWM2*%
X142860000Y-76200000D03*
%TO.P,IC1,7,VO1_(OUTPUT_1)*%
%TO.N,PWM1*%
X142860000Y-74930000D03*
%TO.P,IC1,8,VCC*%
%TO.N,+12V*%
X142860000Y-73660000D03*
%TD*%
D21*
%TO.P,D9,1,K*%
%TO.N,Net-(D8-A)*%
X130812374Y-99060000D03*
%TO.P,D9,2,A*%
%TO.N,GND2*%
X135212374Y-99060000D03*
%TD*%
%TO.P,D8,1,K*%
%TO.N,+12V*%
X130810000Y-104140000D03*
%TO.P,D8,2,A*%
%TO.N,Net-(D8-A)*%
X135210000Y-104140000D03*
%TD*%
%TO.P,D7,1,K*%
%TO.N,Net-(D6-A)*%
X130810000Y-109220000D03*
%TO.P,D7,2,A*%
%TO.N,GND2*%
X135210000Y-109220000D03*
%TD*%
%TO.P,D6,1,K*%
%TO.N,+12V*%
X130855000Y-114300000D03*
%TO.P,D6,2,A*%
%TO.N,Net-(D6-A)*%
X135255000Y-114300000D03*
%TD*%
D22*
%TO.P,D5,1,K*%
%TO.N,Net-(D5-K)*%
X149860000Y-85877500D03*
%TO.P,D5,2,A*%
%TO.N,+12V*%
X149860000Y-84302500D03*
%TD*%
%TO.P,D4,1,K*%
%TO.N,Net-(D4-K)*%
X138430000Y-85877500D03*
%TO.P,D4,2,A*%
%TO.N,+12V*%
X138430000Y-84302500D03*
%TD*%
D23*
%TO.P,D3,1,K*%
%TO.N,GND*%
X128270000Y-73660000D03*
%TO.P,D3,2,A*%
%TO.N,Net-(D3-A)*%
X126695000Y-73660000D03*
%TD*%
%TO.P,D2,1,K*%
%TO.N,GND*%
X128270000Y-76200000D03*
%TO.P,D2,2,A*%
%TO.N,Net-(D2-A)*%
X126695000Y-76200000D03*
%TD*%
%TO.P,D1,1,K*%
%TO.N,GND*%
X128270000Y-78740000D03*
%TO.P,D1,2,A*%
%TO.N,Net-(D1-A)*%
X126695000Y-78740000D03*
%TD*%
D24*
%TO.P,C5,1*%
%TO.N,Net-(D5-K)*%
X147320000Y-93980000D03*
%TO.P,C5,2*%
%TO.N,Net-(D8-A)*%
X147320000Y-95530000D03*
%TD*%
%TO.P,C4,1*%
%TO.N,Net-(D4-K)*%
X135890000Y-93980000D03*
%TO.P,C4,2*%
%TO.N,Net-(D6-A)*%
X135890000Y-95530000D03*
%TD*%
D25*
%TO.P,C3,1*%
%TO.N,+12V*%
X145060000Y-82550000D03*
%TO.P,C3,2*%
%TO.N,GND2*%
X143510000Y-82550000D03*
%TD*%
%TO.P,C2,1*%
%TO.N,+12V*%
X133350000Y-82550000D03*
%TO.P,C2,2*%
%TO.N,GND2*%
X131800000Y-82550000D03*
%TD*%
D26*
%TO.P,C1,1*%
%TO.N,+12V*%
X111380000Y-90170000D03*
%TO.P,C1,2*%
%TO.N,GND2*%
X119380000Y-90170000D03*
%TD*%
D27*
%TO.N,Net-(IC3-LO)*%
X144145000Y-104140000D03*
X144780000Y-96520000D03*
%TO.N,GND2*%
X129540000Y-93980000D03*
X119380000Y-88900000D03*
X121920000Y-91440000D03*
X119380000Y-99060000D03*
X119380000Y-93980000D03*
X116840000Y-91440000D03*
X114300000Y-93980000D03*
X116840000Y-96520000D03*
X116840000Y-101600000D03*
X114300000Y-99060000D03*
X114300000Y-109220000D03*
X139700000Y-93980000D03*
X142240000Y-91440000D03*
X137160000Y-91440000D03*
X149860000Y-99060000D03*
X149860000Y-96520000D03*
X154940000Y-78740000D03*
X152400000Y-81280000D03*
X154940000Y-83820000D03*
X152400000Y-86360000D03*
X152400000Y-91440000D03*
X154940000Y-88900000D03*
X154940000Y-93980000D03*
X154940000Y-99060000D03*
X154940000Y-104140000D03*
X154940000Y-109220000D03*
X144780000Y-114300000D03*
X149860000Y-114300000D03*
X154940000Y-114300000D03*
X119380000Y-114300000D03*
X109220000Y-114300000D03*
X114300000Y-114300000D03*
X116840000Y-111760000D03*
X111760000Y-111760000D03*
X111760000Y-106680000D03*
X109220000Y-109220000D03*
X109220000Y-104140000D03*
X139700000Y-74295000D03*
X140970000Y-77470000D03*
X141605000Y-79375000D03*
X139065000Y-79375000D03*
%TO.N,Net-(IC2-LO)*%
X149225000Y-93345000D03*
X130175000Y-90170000D03*
%TO.N,Net-(IC3-HO)*%
X146240000Y-92075000D03*
%TO.N,Net-(IC2-HO)*%
X134810000Y-92075000D03*
%TO.N,Net-(D4-K)*%
X139970818Y-90009615D03*
X139997295Y-85878865D03*
%TO.N,Net-(IC2-HO)*%
X122555000Y-97155000D03*
%TO.N,Net-(IC3-HO)*%
X123825000Y-97155000D03*
%TO.N,Ps1*%
X131445000Y-73660000D03*
%TO.N,Ps2*%
X129540000Y-77470000D03*
%TD*%
D28*
%TO.N,GND2*%
X122555000Y-90805000D02*
X121920000Y-91440000D01*
X126957374Y-90805000D02*
X122555000Y-90805000D01*
X129540000Y-93387626D02*
X126957374Y-90805000D01*
X129540000Y-93980000D02*
X129540000Y-93387626D01*
D29*
%TO.N,Net-(IC3-LO)*%
X144145000Y-104140000D02*
X144145000Y-102235000D01*
X143510000Y-95250000D02*
X144780000Y-96520000D01*
X143510000Y-90170000D02*
X143510000Y-95250000D01*
D28*
%TO.N,GND2*%
X130132374Y-93980000D02*
X129540000Y-93980000D01*
X121920000Y-91440000D02*
X120650000Y-90170000D01*
X119380000Y-99060000D02*
X119380000Y-93980000D01*
X119380000Y-93980000D02*
X119380000Y-90170000D01*
D29*
%TO.N,Net-(IC2-LO)*%
X151130000Y-93345000D02*
X149225000Y-93345000D01*
X152400000Y-109855000D02*
X152400000Y-94615000D01*
X152400000Y-110490000D02*
X152400000Y-109855000D01*
X149860000Y-113030000D02*
X152400000Y-110490000D01*
X152400000Y-94615000D02*
X151130000Y-93345000D01*
X149605000Y-113285000D02*
X149860000Y-113030000D01*
X142240000Y-113285000D02*
X149605000Y-113285000D01*
X132080000Y-90170000D02*
X130175000Y-90170000D01*
%TO.N,Net-(D5-K)*%
X149225000Y-90170000D02*
X147320000Y-90170000D01*
X149860000Y-89535000D02*
X149225000Y-90170000D01*
X149860000Y-85877500D02*
X149860000Y-89535000D01*
%TO.N,Net-(D4-K)*%
X135890000Y-90170000D02*
X139810433Y-90170000D01*
X139810433Y-90170000D02*
X139970818Y-90009615D01*
X139995930Y-85877500D02*
X139997295Y-85878865D01*
X138430000Y-85877500D02*
X139995930Y-85877500D01*
D30*
%TO.N,GND2*%
X142860000Y-83820000D02*
X143510000Y-84470000D01*
X142860000Y-77470000D02*
X142860000Y-83820000D01*
%TO.N,+12V*%
X114555000Y-86995000D02*
X133985000Y-86995000D01*
X111380000Y-90170000D02*
X114555000Y-86995000D01*
%TO.N,Net-(D6-A)*%
X140843334Y-95530000D02*
X146120000Y-100806666D01*
X146120000Y-106210000D02*
X148670000Y-108760000D01*
X135890000Y-95530000D02*
X140843334Y-95530000D01*
X146120000Y-100806666D02*
X146120000Y-106210000D01*
X135415000Y-95530000D02*
X135890000Y-95530000D01*
X133160000Y-93275000D02*
X135415000Y-95530000D01*
X133160000Y-92075000D02*
X133160000Y-93275000D01*
X133350000Y-91885000D02*
X133160000Y-92075000D01*
X133350000Y-90170000D02*
X133350000Y-91885000D01*
%TO.N,Net-(D8-A)*%
X144590000Y-93155000D02*
X147320000Y-95885000D01*
X144590000Y-92075000D02*
X144590000Y-93155000D01*
X147320000Y-95530000D02*
X147320000Y-95885000D01*
X147320000Y-95885000D02*
X147320000Y-102410000D01*
X144780000Y-91885000D02*
X144590000Y-92075000D01*
X144780000Y-90170000D02*
X144780000Y-91885000D01*
X147320000Y-102410000D02*
X148670000Y-103760000D01*
%TO.N,GND2*%
X141380000Y-111380000D02*
X139700000Y-109700000D01*
X144145000Y-111380000D02*
X141380000Y-111380000D01*
%TO.N,Net-(IC2-LO)*%
X143890000Y-113285000D02*
X144145000Y-113030000D01*
X142240000Y-113285000D02*
X143890000Y-113285000D01*
%TO.N,Net-(Q2-G)*%
X140335000Y-114935000D02*
X142240000Y-114935000D01*
X139700000Y-114300000D02*
X140335000Y-114935000D01*
%TO.N,Net-(Q4-G)*%
X142240000Y-104140000D02*
X139700000Y-104140000D01*
%TO.N,Net-(IC3-LO)*%
X142240000Y-102490000D02*
X143890000Y-102490000D01*
X143890000Y-102490000D02*
X144145000Y-102235000D01*
%TO.N,GND2*%
X144145000Y-100585000D02*
X140745000Y-100585000D01*
X140745000Y-100585000D02*
X139700000Y-99540000D01*
D28*
X135212374Y-99060000D02*
X130132374Y-93980000D01*
X119380000Y-103778988D02*
X119380000Y-99060000D01*
%TO.N,+12V*%
X111760000Y-90550000D02*
X111380000Y-90170000D01*
X111760000Y-103633861D02*
X111760000Y-90550000D01*
X116905127Y-108778988D02*
X111760000Y-103633861D01*
X119380000Y-108778988D02*
X116905127Y-108778988D01*
D31*
%TO.N,GND2*%
X135692374Y-99540000D02*
X135212374Y-99060000D01*
X139700000Y-99540000D02*
X135692374Y-99540000D01*
%TO.N,Net-(D8-A)*%
X139700000Y-101840000D02*
X137510000Y-101840000D01*
X137510000Y-101840000D02*
X135210000Y-104140000D01*
X130812374Y-99742374D02*
X135210000Y-104140000D01*
X130812374Y-99060000D02*
X130812374Y-99742374D01*
%TO.N,Net-(D6-A)*%
X130810000Y-109855000D02*
X135255000Y-114300000D01*
X130810000Y-109220000D02*
X130810000Y-109855000D01*
X137555000Y-112000000D02*
X139700000Y-112000000D01*
X135255000Y-114300000D02*
X137555000Y-112000000D01*
%TO.N,GND2*%
X139220000Y-109220000D02*
X139700000Y-109700000D01*
X135210000Y-109220000D02*
X139220000Y-109220000D01*
%TO.N,Net-(D6-A)*%
X130330000Y-109700000D02*
X130810000Y-109220000D01*
X127000000Y-109700000D02*
X130330000Y-109700000D01*
%TO.N,Net-(D8-A)*%
X130332374Y-99540000D02*
X130812374Y-99060000D01*
X127000000Y-99540000D02*
X130332374Y-99540000D01*
D30*
%TO.N,Net-(IC2-HO)*%
X122375000Y-97335000D02*
X122555000Y-97155000D01*
X122555000Y-112395000D02*
X122375000Y-112215000D01*
X122375000Y-112215000D02*
X122375000Y-97335000D01*
X122810000Y-112650000D02*
X122555000Y-112395000D01*
X123825000Y-112650000D02*
X122810000Y-112650000D01*
%TO.N,Net-(IC3-HO)*%
X123825000Y-102490000D02*
X123825000Y-97155000D01*
D31*
%TO.N,Net-(Q3-G)*%
X127000000Y-104140000D02*
X123825000Y-104140000D01*
%TO.N,Net-(Q1-G)*%
X127000000Y-114300000D02*
X123825000Y-114300000D01*
%TO.N,+12V*%
X128510000Y-112000000D02*
X130810000Y-114300000D01*
X127000000Y-112000000D02*
X128510000Y-112000000D01*
X128510000Y-101840000D02*
X130810000Y-104140000D01*
X127000000Y-101840000D02*
X128510000Y-101840000D01*
D29*
%TO.N,Net-(IC3-HO)*%
X146240000Y-90360000D02*
X146050000Y-90170000D01*
X146240000Y-92075000D02*
X146240000Y-90360000D01*
%TO.N,Net-(IC2-HO)*%
X134810000Y-90360000D02*
X134620000Y-90170000D01*
X134810000Y-92075000D02*
X134810000Y-90360000D01*
%TO.N,Net-(D5-K)*%
X147320000Y-90170000D02*
X147320000Y-93980000D01*
%TO.N,Net-(D4-K)*%
X135890000Y-93980000D02*
X135890000Y-90170000D01*
%TO.N,+12V*%
X146685000Y-86995000D02*
X147320000Y-86360000D01*
X146685000Y-86995000D02*
X147320000Y-86995000D01*
X144780000Y-86995000D02*
X146685000Y-86995000D01*
X147955000Y-86360000D02*
X147320000Y-86360000D01*
X147320000Y-86360000D02*
X147320000Y-85725000D01*
X147320000Y-86995000D02*
X147320000Y-86360000D01*
X147320000Y-85725000D02*
X147320000Y-85090000D01*
X147320000Y-85725000D02*
X147955000Y-86360000D01*
X147320000Y-85090000D02*
X147955000Y-85725000D01*
X147955000Y-85725000D02*
X147955000Y-84470000D01*
X147320000Y-85090000D02*
X147320000Y-84470000D01*
X147955000Y-86360000D02*
X147955000Y-85725000D01*
X147955000Y-85105000D02*
X147320000Y-84470000D01*
X147955000Y-86360000D02*
X147955000Y-85105000D01*
X147955000Y-84470000D02*
X149692500Y-84470000D01*
X147320000Y-84470000D02*
X147955000Y-84470000D01*
X147320000Y-86995000D02*
X147955000Y-86360000D01*
X149860000Y-79535000D02*
X149860000Y-84302500D01*
X142860000Y-73660000D02*
X143985000Y-73660000D01*
X143985000Y-73660000D02*
X149860000Y-79535000D01*
X135890000Y-86995000D02*
X144780000Y-86995000D01*
X133985000Y-86995000D02*
X135890000Y-86995000D01*
X135890000Y-84470000D02*
X135890000Y-86995000D01*
X144780000Y-84470000D02*
X144780000Y-86995000D01*
X133350000Y-84470000D02*
X133350000Y-86360000D01*
X133350000Y-86360000D02*
X133985000Y-86995000D01*
%TO.N,PWM2*%
X146050000Y-78265000D02*
X146050000Y-84470000D01*
X143985000Y-76200000D02*
X146050000Y-78265000D01*
X142860000Y-76200000D02*
X143985000Y-76200000D01*
%TO.N,PWM1*%
X134620000Y-81915000D02*
X134620000Y-84470000D01*
X141605000Y-74930000D02*
X134620000Y-81915000D01*
X142860000Y-74930000D02*
X141605000Y-74930000D01*
%TO.N,GND2*%
X143510000Y-82550000D02*
X143510000Y-84470000D01*
%TO.N,+12V*%
X149692500Y-84470000D02*
X149860000Y-84302500D01*
X145060000Y-84190000D02*
X144780000Y-84470000D01*
X145060000Y-82550000D02*
X145060000Y-84190000D01*
X138262500Y-84470000D02*
X138430000Y-84302500D01*
X135890000Y-84470000D02*
X138262500Y-84470000D01*
X133350000Y-82550000D02*
X133350000Y-84470000D01*
%TO.N,GND2*%
X131800000Y-84190000D02*
X132080000Y-84470000D01*
X131800000Y-82550000D02*
X131800000Y-84190000D01*
%TO.N,Ps2*%
X129540000Y-77470000D02*
X132970000Y-77470000D01*
%TO.N,Ps1*%
X131445000Y-73660000D02*
X132970000Y-73660000D01*
D30*
%TO.N,GND*%
X128270000Y-75565000D02*
X137160000Y-75565000D01*
X137160000Y-76200000D02*
X137160000Y-75565000D01*
X128270000Y-75565000D02*
X128270000Y-74930000D01*
X137160000Y-75565000D02*
X137160000Y-74930000D01*
X128270000Y-78740000D02*
X128270000Y-75565000D01*
X137160000Y-74930000D02*
X128270000Y-74930000D01*
X128270000Y-74930000D02*
X128270000Y-73660000D01*
X128270000Y-76200000D02*
X137160000Y-76200000D01*
%TO.N,Net-(IC1-ANODE_2)*%
X134620000Y-77470000D02*
X137160000Y-77470000D01*
%TO.N,Net-(IC1-ANODE_1)*%
X134620000Y-73660000D02*
X137160000Y-73660000D01*
%TO.N,GND*%
X128270000Y-73185001D02*
X128270000Y-73660000D01*
X126224999Y-71140000D02*
X128270000Y-73185001D01*
X116565000Y-71140000D02*
X126224999Y-71140000D01*
%TO.N,Net-(D1-A)*%
X124980000Y-78740000D02*
X126695000Y-78740000D01*
%TO.N,Net-(D2-A)*%
X124980000Y-76200000D02*
X126695000Y-76200000D01*
%TO.N,Net-(D3-A)*%
X125002618Y-73660000D02*
X126695000Y-73660000D01*
%TO.N,SDs*%
X123332618Y-73640000D02*
X123352618Y-73660000D01*
X116565000Y-73640000D02*
X123332618Y-73640000D01*
%TO.N,Ps2*%
X116625000Y-76200000D02*
X116565000Y-76140000D01*
X123330000Y-76200000D02*
X116625000Y-76200000D01*
%TO.N,Ps1*%
X123230000Y-78640000D02*
X123330000Y-78740000D01*
X116565000Y-78640000D02*
X123230000Y-78640000D01*
%TD*%
%TA.AperFunction,Conductor*%
%TO.N,GND2*%
G36*
X148500701Y-93887779D02*
G01*
X148511649Y-93898520D01*
X148619129Y-94017888D01*
X148772265Y-94129148D01*
X148772270Y-94129151D01*
X148945192Y-94206142D01*
X148945197Y-94206144D01*
X149130354Y-94245500D01*
X149130355Y-94245500D01*
X149319644Y-94245500D01*
X149319646Y-94245500D01*
X149504803Y-94206144D01*
X149677730Y-94129151D01*
X149679776Y-94127664D01*
X149691452Y-94119182D01*
X149757258Y-94095702D01*
X149764337Y-94095500D01*
X150767770Y-94095500D01*
X150834809Y-94115185D01*
X150855451Y-94131819D01*
X151613181Y-94889548D01*
X151646666Y-94950871D01*
X151649500Y-94977229D01*
X151649500Y-110127770D01*
X151629815Y-110194809D01*
X151613181Y-110215451D01*
X149330451Y-112498181D01*
X149269128Y-112531666D01*
X149242770Y-112534500D01*
X145129851Y-112534500D01*
X145062812Y-112514815D01*
X145023734Y-112474650D01*
X145022341Y-112472346D01*
X144975472Y-112394815D01*
X144975470Y-112394813D01*
X144975469Y-112394811D01*
X144855188Y-112274530D01*
X144855185Y-112274528D01*
X144709606Y-112186522D01*
X144677780Y-112176604D01*
X144645786Y-112161324D01*
X144618914Y-112143369D01*
X144618911Y-112143367D01*
X144618910Y-112143367D01*
X144436835Y-112067949D01*
X144436827Y-112067947D01*
X144243543Y-112029500D01*
X144243540Y-112029500D01*
X144046459Y-112029500D01*
X144046456Y-112029500D01*
X143853171Y-112067947D01*
X143853163Y-112067949D01*
X143671087Y-112143367D01*
X143644210Y-112161326D01*
X143612211Y-112176607D01*
X143580397Y-112186520D01*
X143565496Y-112195528D01*
X143447900Y-112266617D01*
X143383752Y-112284500D01*
X142141457Y-112284500D01*
X141948170Y-112322947D01*
X141948160Y-112322950D01*
X141766091Y-112398365D01*
X141766087Y-112398367D01*
X141766086Y-112398368D01*
X141739207Y-112416327D01*
X141707213Y-112431606D01*
X141675400Y-112441519D01*
X141675396Y-112441520D01*
X141529811Y-112529530D01*
X141409530Y-112649811D01*
X141321522Y-112795393D01*
X141270913Y-112957807D01*
X141264500Y-113028386D01*
X141264500Y-113048564D01*
X141262117Y-113072757D01*
X141245727Y-113155149D01*
X141213341Y-113217060D01*
X141152625Y-113251633D01*
X141082855Y-113247892D01*
X141026184Y-113207025D01*
X141015276Y-113190380D01*
X141013797Y-113187673D01*
X141013796Y-113187669D01*
X141012890Y-113186459D01*
X140927547Y-113072455D01*
X140927544Y-113072452D01*
X140825144Y-112995795D01*
X140783273Y-112939861D01*
X140778289Y-112870170D01*
X140795644Y-112828713D01*
X140909450Y-112654521D01*
X141000685Y-112446526D01*
X141056441Y-112226350D01*
X141072753Y-112029500D01*
X141075197Y-112000005D01*
X141075197Y-111999994D01*
X141058343Y-111796606D01*
X141056441Y-111773650D01*
X141000685Y-111553474D01*
X140909450Y-111345479D01*
X140785224Y-111155337D01*
X140631396Y-110988235D01*
X140631391Y-110988231D01*
X140631389Y-110988229D01*
X140452169Y-110848736D01*
X140452163Y-110848732D01*
X140252411Y-110740631D01*
X140252406Y-110740629D01*
X140037593Y-110666884D01*
X139888239Y-110641961D01*
X139813563Y-110629500D01*
X139586437Y-110629500D01*
X139530430Y-110638846D01*
X139362406Y-110666884D01*
X139142739Y-110742296D01*
X139142268Y-110740926D01*
X139101370Y-110749500D01*
X137456578Y-110749500D01*
X137262173Y-110780290D01*
X137074969Y-110841117D01*
X136899594Y-110930476D01*
X136822046Y-110986819D01*
X136740354Y-111046172D01*
X136740352Y-111046174D01*
X136740351Y-111046174D01*
X135342681Y-112443845D01*
X135281358Y-112477330D01*
X135211666Y-112472346D01*
X135167319Y-112443845D01*
X132096819Y-109373345D01*
X132063334Y-109312022D01*
X132060500Y-109285664D01*
X132060500Y-109121583D01*
X132049453Y-109051836D01*
X132049453Y-109051835D01*
X132045504Y-109026903D01*
X132029709Y-108927173D01*
X132025181Y-108913238D01*
X132016568Y-108886728D01*
X132010499Y-108848411D01*
X132010499Y-108172129D01*
X132010498Y-108172123D01*
X132010497Y-108172116D01*
X132004091Y-108112517D01*
X131980331Y-108048814D01*
X131953797Y-107977671D01*
X131953793Y-107977664D01*
X131867547Y-107862455D01*
X131867544Y-107862452D01*
X131752335Y-107776206D01*
X131752328Y-107776202D01*
X131617482Y-107725908D01*
X131617483Y-107725908D01*
X131557883Y-107719501D01*
X131557881Y-107719500D01*
X131557873Y-107719500D01*
X131557864Y-107719500D01*
X130062129Y-107719500D01*
X130062123Y-107719501D01*
X130002516Y-107725908D01*
X129867671Y-107776202D01*
X129867664Y-107776206D01*
X129752455Y-107862452D01*
X129752452Y-107862455D01*
X129666206Y-107977664D01*
X129666202Y-107977671D01*
X129615908Y-108112517D01*
X129609501Y-108172116D01*
X129609501Y-108172123D01*
X129609500Y-108172135D01*
X129609500Y-108325500D01*
X129589815Y-108392539D01*
X129537011Y-108438294D01*
X129485500Y-108449500D01*
X127598630Y-108449500D01*
X127557731Y-108440926D01*
X127557261Y-108442296D01*
X127337593Y-108366884D01*
X127188239Y-108341961D01*
X127113563Y-108329500D01*
X126886437Y-108329500D01*
X126830430Y-108338846D01*
X126662406Y-108366884D01*
X126447593Y-108440629D01*
X126447588Y-108440631D01*
X126247836Y-108548732D01*
X126247830Y-108548736D01*
X126068610Y-108688229D01*
X126068607Y-108688232D01*
X125914776Y-108855337D01*
X125790548Y-109045482D01*
X125699314Y-109253475D01*
X125643558Y-109473653D01*
X125624803Y-109699994D01*
X125624803Y-109700005D01*
X125643558Y-109926346D01*
X125699314Y-110146524D01*
X125746574Y-110254267D01*
X125790550Y-110354521D01*
X125914776Y-110544663D01*
X126068604Y-110711765D01*
X126068607Y-110711767D01*
X126068610Y-110711770D01*
X126120486Y-110752147D01*
X126161299Y-110808857D01*
X126164974Y-110878630D01*
X126130342Y-110939313D01*
X126120486Y-110947853D01*
X126068610Y-110988229D01*
X126068607Y-110988232D01*
X126068604Y-110988234D01*
X126068604Y-110988235D01*
X125964927Y-111100858D01*
X125914776Y-111155337D01*
X125790548Y-111345482D01*
X125699314Y-111553475D01*
X125643558Y-111773653D01*
X125624803Y-111999994D01*
X125624803Y-112000005D01*
X125643558Y-112226346D01*
X125699314Y-112446524D01*
X125790549Y-112654520D01*
X125904352Y-112828709D01*
X125924539Y-112895598D01*
X125905359Y-112962784D01*
X125874856Y-112995795D01*
X125848086Y-113015835D01*
X125836157Y-113024765D01*
X125770696Y-113049184D01*
X125761846Y-113049500D01*
X124923294Y-113049500D01*
X124856255Y-113029815D01*
X124810500Y-112977011D01*
X124799803Y-112914277D01*
X124800500Y-112906616D01*
X124800500Y-112886434D01*
X124802883Y-112862242D01*
X124803681Y-112858233D01*
X124816180Y-112795394D01*
X124825500Y-112748543D01*
X124825500Y-112551456D01*
X124802883Y-112437756D01*
X124800500Y-112413564D01*
X124800500Y-112393386D01*
X124794086Y-112322807D01*
X124794086Y-112322804D01*
X124743478Y-112160394D01*
X124655472Y-112014815D01*
X124655470Y-112014813D01*
X124655469Y-112014811D01*
X124535188Y-111894530D01*
X124535185Y-111894528D01*
X124389606Y-111806522D01*
X124389603Y-111806521D01*
X124357786Y-111796606D01*
X124325787Y-111781324D01*
X124322289Y-111778987D01*
X124298914Y-111763368D01*
X124298911Y-111763366D01*
X124298906Y-111763364D01*
X124116839Y-111687950D01*
X124116829Y-111687947D01*
X123923543Y-111649500D01*
X123923541Y-111649500D01*
X123499500Y-111649500D01*
X123432461Y-111629815D01*
X123386706Y-111577011D01*
X123375500Y-111525500D01*
X123375500Y-105479387D01*
X123395185Y-105412348D01*
X123447989Y-105366593D01*
X123517147Y-105356649D01*
X123528460Y-105358816D01*
X123532160Y-105359704D01*
X123532174Y-105359709D01*
X123532187Y-105359711D01*
X123726578Y-105390500D01*
X123726583Y-105390500D01*
X125761846Y-105390500D01*
X125828885Y-105410185D01*
X125836146Y-105415225D01*
X125887665Y-105453793D01*
X125887668Y-105453795D01*
X125887671Y-105453797D01*
X126022517Y-105504091D01*
X126022516Y-105504091D01*
X126029444Y-105504835D01*
X126082127Y-105510500D01*
X127917872Y-105510499D01*
X127977483Y-105504091D01*
X128112331Y-105453796D01*
X128227546Y-105367546D01*
X128313796Y-105252331D01*
X128364091Y-105117483D01*
X128370500Y-105057873D01*
X128370499Y-103768334D01*
X128390184Y-103701296D01*
X128442987Y-103655541D01*
X128512146Y-103645597D01*
X128575702Y-103674622D01*
X128582180Y-103680654D01*
X129573181Y-104671655D01*
X129606666Y-104732978D01*
X129609500Y-104759336D01*
X129609500Y-105187870D01*
X129609501Y-105187876D01*
X129615908Y-105247483D01*
X129666202Y-105382328D01*
X129666206Y-105382335D01*
X129752452Y-105497544D01*
X129752455Y-105497547D01*
X129867664Y-105583793D01*
X129867671Y-105583797D01*
X130002517Y-105634091D01*
X130002516Y-105634091D01*
X130009444Y-105634835D01*
X130062127Y-105640500D01*
X131557872Y-105640499D01*
X131617483Y-105634091D01*
X131752331Y-105583796D01*
X131867546Y-105497546D01*
X131953796Y-105382331D01*
X132004091Y-105247483D01*
X132010500Y-105187873D01*
X132010499Y-104511585D01*
X132016568Y-104473267D01*
X132018541Y-104467196D01*
X132029709Y-104432826D01*
X132046504Y-104326784D01*
X132060500Y-104238421D01*
X132060500Y-104041577D01*
X132029709Y-103847173D01*
X132016568Y-103806730D01*
X132010499Y-103768411D01*
X132010499Y-103092129D01*
X132010498Y-103092123D01*
X132004091Y-103032517D01*
X132002422Y-103025455D01*
X132006158Y-102955685D01*
X132047022Y-102899011D01*
X132112039Y-102873427D01*
X132180567Y-102887055D01*
X132210778Y-102909252D01*
X133973181Y-104671655D01*
X134006666Y-104732978D01*
X134009500Y-104759336D01*
X134009500Y-105187870D01*
X134009501Y-105187876D01*
X134015908Y-105247483D01*
X134066202Y-105382328D01*
X134066206Y-105382335D01*
X134152452Y-105497544D01*
X134152455Y-105497547D01*
X134267664Y-105583793D01*
X134267671Y-105583797D01*
X134402517Y-105634091D01*
X134402516Y-105634091D01*
X134409444Y-105634835D01*
X134462127Y-105640500D01*
X135957872Y-105640499D01*
X136017483Y-105634091D01*
X136152331Y-105583796D01*
X136267546Y-105497546D01*
X136353796Y-105382331D01*
X136404091Y-105247483D01*
X136410500Y-105187873D01*
X136410499Y-104759334D01*
X136430183Y-104692296D01*
X136446813Y-104671659D01*
X137991655Y-103126819D01*
X138052978Y-103093334D01*
X138079336Y-103090500D01*
X138205731Y-103090500D01*
X138272770Y-103110185D01*
X138318525Y-103162989D01*
X138329110Y-103218806D01*
X138329500Y-103218806D01*
X138329500Y-103220863D01*
X138329553Y-103221143D01*
X138329500Y-103222130D01*
X138329500Y-105057870D01*
X138329501Y-105057876D01*
X138335908Y-105117483D01*
X138386202Y-105252328D01*
X138386206Y-105252335D01*
X138472452Y-105367544D01*
X138472455Y-105367547D01*
X138587664Y-105453793D01*
X138587671Y-105453797D01*
X138722517Y-105504091D01*
X138722516Y-105504091D01*
X138729444Y-105504835D01*
X138782127Y-105510500D01*
X140617872Y-105510499D01*
X140677483Y-105504091D01*
X140812331Y-105453796D01*
X140927546Y-105367546D01*
X141013796Y-105252331D01*
X141015604Y-105247483D01*
X141025420Y-105221167D01*
X141067291Y-105165233D01*
X141132756Y-105140816D01*
X141141602Y-105140500D01*
X142338543Y-105140500D01*
X142468582Y-105114632D01*
X142531835Y-105102051D01*
X142713914Y-105026632D01*
X142740788Y-105008674D01*
X142772786Y-104993392D01*
X142804606Y-104983478D01*
X142950185Y-104895472D01*
X143070472Y-104775185D01*
X143158478Y-104629606D01*
X143158480Y-104629598D01*
X143159574Y-104627169D01*
X143160853Y-104625675D01*
X143162358Y-104623187D01*
X143162771Y-104623437D01*
X143205034Y-104574111D01*
X143271963Y-104554054D01*
X143339111Y-104573365D01*
X143380040Y-104616052D01*
X143412465Y-104672214D01*
X143539129Y-104812888D01*
X143692265Y-104924148D01*
X143692270Y-104924151D01*
X143865192Y-105001142D01*
X143865197Y-105001144D01*
X144050354Y-105040500D01*
X144050355Y-105040500D01*
X144239644Y-105040500D01*
X144239646Y-105040500D01*
X144424803Y-105001144D01*
X144597730Y-104924151D01*
X144750871Y-104812888D01*
X144877533Y-104672216D01*
X144888112Y-104653891D01*
X144938679Y-104605676D01*
X145007286Y-104592452D01*
X145072151Y-104618420D01*
X145112680Y-104675334D01*
X145119500Y-104715891D01*
X145119500Y-106308544D01*
X145157947Y-106501829D01*
X145157949Y-106501836D01*
X145167115Y-106523964D01*
X145167116Y-106523965D01*
X145167117Y-106523969D01*
X145233368Y-106683914D01*
X145233369Y-106683917D01*
X145342859Y-106847780D01*
X145342860Y-106847781D01*
X145342861Y-106847782D01*
X145482218Y-106987139D01*
X145482219Y-106987139D01*
X145489286Y-106994206D01*
X145489285Y-106994206D01*
X145489289Y-106994209D01*
X146482571Y-107987491D01*
X146516056Y-108048814D01*
X146512310Y-108115029D01*
X146491520Y-108176274D01*
X146491517Y-108176286D01*
X146433968Y-108465609D01*
X146433964Y-108465636D01*
X146414671Y-108759992D01*
X146414671Y-108760007D01*
X146433964Y-109054363D01*
X146433965Y-109054373D01*
X146433966Y-109054380D01*
X146433968Y-109054390D01*
X146491518Y-109343716D01*
X146491521Y-109343730D01*
X146586349Y-109623080D01*
X146716825Y-109887660D01*
X146716829Y-109887667D01*
X146880725Y-110132955D01*
X147075241Y-110354758D01*
X147297044Y-110549274D01*
X147493818Y-110680754D01*
X147542335Y-110713172D01*
X147806923Y-110843652D01*
X148086278Y-110938481D01*
X148375620Y-110996034D01*
X148403888Y-110997886D01*
X148669993Y-111015329D01*
X148670000Y-111015329D01*
X148670007Y-111015329D01*
X148905675Y-110999881D01*
X148964380Y-110996034D01*
X149253722Y-110938481D01*
X149533077Y-110843652D01*
X149797665Y-110713172D01*
X150042957Y-110549273D01*
X150264758Y-110354758D01*
X150459273Y-110132957D01*
X150623172Y-109887665D01*
X150753652Y-109623077D01*
X150848481Y-109343722D01*
X150906034Y-109054380D01*
X150909881Y-108995675D01*
X150925329Y-108760007D01*
X150925329Y-108759992D01*
X150906035Y-108465636D01*
X150906034Y-108465620D01*
X150848481Y-108176278D01*
X150753652Y-107896923D01*
X150623172Y-107632336D01*
X150459273Y-107387043D01*
X150392223Y-107310587D01*
X150264758Y-107165241D01*
X150042955Y-106970725D01*
X149797667Y-106806829D01*
X149797660Y-106806825D01*
X149533080Y-106676349D01*
X149253730Y-106581521D01*
X149253724Y-106581519D01*
X149253722Y-106581519D01*
X148964380Y-106523966D01*
X148964373Y-106523965D01*
X148964363Y-106523964D01*
X148670007Y-106504671D01*
X148669993Y-106504671D01*
X148375636Y-106523964D01*
X148375624Y-106523965D01*
X148375620Y-106523966D01*
X148375612Y-106523967D01*
X148375609Y-106523968D01*
X148086286Y-106581517D01*
X148086274Y-106581520D01*
X148025029Y-106602310D01*
X147955220Y-106605218D01*
X147897491Y-106572571D01*
X147547101Y-106222180D01*
X147513616Y-106160857D01*
X147518600Y-106091165D01*
X147560472Y-106035232D01*
X147625936Y-106010815D01*
X147634782Y-106010499D01*
X150467871Y-106010499D01*
X150467872Y-106010499D01*
X150527483Y-106004091D01*
X150662331Y-105953796D01*
X150777546Y-105867546D01*
X150863796Y-105752331D01*
X150914091Y-105617483D01*
X150920500Y-105557873D01*
X150920499Y-101962128D01*
X150915299Y-101913757D01*
X150914091Y-101902516D01*
X150863797Y-101767671D01*
X150863793Y-101767664D01*
X150777547Y-101652455D01*
X150777544Y-101652452D01*
X150662335Y-101566206D01*
X150662328Y-101566202D01*
X150527482Y-101515908D01*
X150527483Y-101515908D01*
X150467883Y-101509501D01*
X150467881Y-101509500D01*
X150467873Y-101509500D01*
X150467865Y-101509500D01*
X148444500Y-101509500D01*
X148377461Y-101489815D01*
X148331706Y-101437011D01*
X148320500Y-101385500D01*
X148320500Y-95431456D01*
X148297882Y-95317752D01*
X148295499Y-95293560D01*
X148295499Y-95256662D01*
X148295498Y-95256644D01*
X148285349Y-95157292D01*
X148285348Y-95157289D01*
X148232003Y-94996303D01*
X148231999Y-94996297D01*
X148231998Y-94996294D01*
X148142970Y-94851959D01*
X148142967Y-94851955D01*
X148133693Y-94842681D01*
X148100208Y-94781358D01*
X148105192Y-94711666D01*
X148133693Y-94667319D01*
X148142968Y-94658044D01*
X148232003Y-94513697D01*
X148285349Y-94352708D01*
X148295500Y-94253345D01*
X148295499Y-93981490D01*
X148315183Y-93914453D01*
X148367987Y-93868698D01*
X148437146Y-93858754D01*
X148500701Y-93887779D01*
G37*
%TD.AperFunction*%
%TA.AperFunction,Conductor*%
G36*
X148919447Y-86355115D02*
G01*
X148943906Y-86395974D01*
X148944401Y-86395744D01*
X148946630Y-86400525D01*
X148947160Y-86401410D01*
X148947447Y-86402278D01*
X148947455Y-86402295D01*
X149035716Y-86545387D01*
X149035719Y-86545391D01*
X149073181Y-86582853D01*
X149106666Y-86644176D01*
X149109500Y-86670534D01*
X149109500Y-89172770D01*
X149089815Y-89239809D01*
X149073181Y-89260451D01*
X148950451Y-89383181D01*
X148889128Y-89416666D01*
X148862770Y-89419500D01*
X148218467Y-89419500D01*
X148151428Y-89399815D01*
X148105673Y-89347011D01*
X148102285Y-89338834D01*
X148088796Y-89302669D01*
X148088793Y-89302664D01*
X148002547Y-89187455D01*
X148002544Y-89187452D01*
X147887335Y-89101206D01*
X147887328Y-89101202D01*
X147752486Y-89050910D01*
X147752485Y-89050909D01*
X147752483Y-89050909D01*
X147692873Y-89044500D01*
X147692863Y-89044500D01*
X146947129Y-89044500D01*
X146947123Y-89044501D01*
X146887516Y-89050908D01*
X146752671Y-89101202D01*
X146744886Y-89105454D01*
X146743153Y-89102280D01*
X146693698Y-89120659D01*
X146625443Y-89105725D01*
X146624497Y-89105117D01*
X146617328Y-89101202D01*
X146482486Y-89050910D01*
X146482485Y-89050909D01*
X146482483Y-89050909D01*
X146422873Y-89044500D01*
X146422863Y-89044500D01*
X145677129Y-89044500D01*
X145677123Y-89044501D01*
X145617516Y-89050908D01*
X145482671Y-89101202D01*
X145474886Y-89105454D01*
X145473153Y-89102280D01*
X145423698Y-89120659D01*
X145355443Y-89105725D01*
X145354497Y-89105117D01*
X145347328Y-89101202D01*
X145212486Y-89050910D01*
X145212485Y-89050909D01*
X145212483Y-89050909D01*
X145152873Y-89044500D01*
X145152863Y-89044500D01*
X144407129Y-89044500D01*
X144407123Y-89044501D01*
X144347516Y-89050908D01*
X144212671Y-89101202D01*
X144204886Y-89105454D01*
X144203153Y-89102280D01*
X144153698Y-89120659D01*
X144085443Y-89105725D01*
X144084497Y-89105117D01*
X144077328Y-89101202D01*
X143942486Y-89050910D01*
X143942485Y-89050909D01*
X143942483Y-89050909D01*
X143882873Y-89044500D01*
X143882863Y-89044500D01*
X143137129Y-89044500D01*
X143137123Y-89044501D01*
X143077516Y-89050908D01*
X142942671Y-89101202D01*
X142942664Y-89101206D01*
X142827455Y-89187452D01*
X142827452Y-89187455D01*
X142741206Y-89302664D01*
X142741202Y-89302671D01*
X142690908Y-89437517D01*
X142684501Y-89497116D01*
X142684500Y-89497135D01*
X142684500Y-90842870D01*
X142684501Y-90842876D01*
X142690908Y-90902483D01*
X142741203Y-91037330D01*
X142744329Y-91043054D01*
X142759500Y-91102486D01*
X142759500Y-95323918D01*
X142759500Y-95323920D01*
X142759499Y-95323920D01*
X142788340Y-95468907D01*
X142788343Y-95468917D01*
X142844913Y-95605490D01*
X142844915Y-95605493D01*
X142854274Y-95619501D01*
X142927049Y-95728418D01*
X142927052Y-95728421D01*
X143867228Y-96668595D01*
X143897478Y-96717958D01*
X143954829Y-96894465D01*
X143952192Y-96895321D01*
X143959866Y-96952475D01*
X143930248Y-97015756D01*
X143871119Y-97052980D01*
X143801252Y-97052326D01*
X143749617Y-97021362D01*
X141627543Y-94899289D01*
X141627540Y-94899285D01*
X141627540Y-94899286D01*
X141620473Y-94892219D01*
X141620473Y-94892218D01*
X141481116Y-94752861D01*
X141481115Y-94752860D01*
X141481114Y-94752859D01*
X141317254Y-94643371D01*
X141317241Y-94643364D01*
X141187564Y-94589651D01*
X141187563Y-94589651D01*
X141135170Y-94567949D01*
X141135162Y-94567947D01*
X141000101Y-94541082D01*
X140961283Y-94533360D01*
X140941876Y-94529500D01*
X140941875Y-94529500D01*
X136968486Y-94529500D01*
X136901447Y-94509815D01*
X136855692Y-94457011D01*
X136845748Y-94387853D01*
X136850781Y-94366494D01*
X136855348Y-94352710D01*
X136855349Y-94352708D01*
X136865500Y-94253345D01*
X136865499Y-93706656D01*
X136855349Y-93607292D01*
X136802003Y-93446303D01*
X136801999Y-93446297D01*
X136801998Y-93446294D01*
X136712970Y-93301959D01*
X136712967Y-93301955D01*
X136676819Y-93265807D01*
X136643334Y-93204484D01*
X136640500Y-93178126D01*
X136640500Y-91102486D01*
X136655671Y-91043054D01*
X136658795Y-91037332D01*
X136658794Y-91037332D01*
X136658796Y-91037331D01*
X136672285Y-91001166D01*
X136714157Y-90945233D01*
X136779621Y-90920816D01*
X136788467Y-90920500D01*
X139884352Y-90920500D01*
X139924580Y-90912498D01*
X139948772Y-90910115D01*
X140065462Y-90910115D01*
X140065464Y-90910115D01*
X140250621Y-90870759D01*
X140423548Y-90793766D01*
X140576689Y-90682503D01*
X140703351Y-90541831D01*
X140797997Y-90377899D01*
X140856492Y-90197871D01*
X140876278Y-90009615D01*
X140856492Y-89821359D01*
X140797997Y-89641331D01*
X140703351Y-89477399D01*
X140576689Y-89336727D01*
X140576688Y-89336726D01*
X140423552Y-89225466D01*
X140423547Y-89225463D01*
X140250625Y-89148472D01*
X140250620Y-89148470D01*
X140104819Y-89117480D01*
X140065464Y-89109115D01*
X139876172Y-89109115D01*
X139843715Y-89116013D01*
X139691015Y-89148470D01*
X139691010Y-89148472D01*
X139518088Y-89225463D01*
X139518083Y-89225466D01*
X139364948Y-89336725D01*
X139364941Y-89336731D01*
X139327359Y-89378472D01*
X139267873Y-89415121D01*
X139235209Y-89419500D01*
X136788467Y-89419500D01*
X136721428Y-89399815D01*
X136675673Y-89347011D01*
X136672285Y-89338834D01*
X136658796Y-89302669D01*
X136658793Y-89302664D01*
X136572547Y-89187455D01*
X136572544Y-89187452D01*
X136457335Y-89101206D01*
X136457328Y-89101202D01*
X136322486Y-89050910D01*
X136322485Y-89050909D01*
X136322483Y-89050909D01*
X136262873Y-89044500D01*
X136262863Y-89044500D01*
X135517129Y-89044500D01*
X135517123Y-89044501D01*
X135457516Y-89050908D01*
X135322671Y-89101202D01*
X135314886Y-89105454D01*
X135313153Y-89102280D01*
X135263698Y-89120659D01*
X135195443Y-89105725D01*
X135194497Y-89105117D01*
X135187328Y-89101202D01*
X135052486Y-89050910D01*
X135052485Y-89050909D01*
X135052483Y-89050909D01*
X134992873Y-89044500D01*
X134992863Y-89044500D01*
X134247129Y-89044500D01*
X134247123Y-89044501D01*
X134187516Y-89050908D01*
X134052671Y-89101202D01*
X134044886Y-89105454D01*
X134043153Y-89102280D01*
X133993698Y-89120659D01*
X133925443Y-89105725D01*
X133924497Y-89105117D01*
X133917328Y-89101202D01*
X133782486Y-89050910D01*
X133782485Y-89050909D01*
X133782483Y-89050909D01*
X133722873Y-89044500D01*
X133722863Y-89044500D01*
X132977129Y-89044500D01*
X132977123Y-89044501D01*
X132917516Y-89050908D01*
X132782671Y-89101202D01*
X132774886Y-89105454D01*
X132773153Y-89102280D01*
X132723698Y-89120659D01*
X132655443Y-89105725D01*
X132654497Y-89105117D01*
X132647328Y-89101202D01*
X132512486Y-89050910D01*
X132512485Y-89050909D01*
X132512483Y-89050909D01*
X132452873Y-89044500D01*
X132452863Y-89044500D01*
X131707129Y-89044500D01*
X131707123Y-89044501D01*
X131647516Y-89050908D01*
X131512671Y-89101202D01*
X131512664Y-89101206D01*
X131397455Y-89187452D01*
X131397452Y-89187455D01*
X131311206Y-89302664D01*
X131311203Y-89302669D01*
X131297715Y-89338834D01*
X131255843Y-89394767D01*
X131190379Y-89419184D01*
X131181533Y-89419500D01*
X130714337Y-89419500D01*
X130647298Y-89399815D01*
X130641452Y-89395818D01*
X130627734Y-89385851D01*
X130627729Y-89385848D01*
X130454807Y-89308857D01*
X130454802Y-89308855D01*
X130309001Y-89277865D01*
X130269646Y-89269500D01*
X130080354Y-89269500D01*
X130047897Y-89276398D01*
X129895197Y-89308855D01*
X129895192Y-89308857D01*
X129722270Y-89385848D01*
X129722265Y-89385851D01*
X129569129Y-89497111D01*
X129442466Y-89637785D01*
X129347821Y-89801715D01*
X129347818Y-89801722D01*
X129304286Y-89935702D01*
X129289326Y-89981744D01*
X129269540Y-90170000D01*
X129289326Y-90358256D01*
X129289327Y-90358259D01*
X129347818Y-90538277D01*
X129347821Y-90538284D01*
X129442467Y-90702216D01*
X129562102Y-90835084D01*
X129569129Y-90842888D01*
X129722265Y-90954148D01*
X129722270Y-90954151D01*
X129895192Y-91031142D01*
X129895197Y-91031144D01*
X130080354Y-91070500D01*
X130080355Y-91070500D01*
X130269644Y-91070500D01*
X130269646Y-91070500D01*
X130454803Y-91031144D01*
X130627730Y-90954151D01*
X130640005Y-90945233D01*
X130641452Y-90944182D01*
X130707258Y-90920702D01*
X130714337Y-90920500D01*
X131181533Y-90920500D01*
X131248572Y-90940185D01*
X131294327Y-90992989D01*
X131297715Y-91001166D01*
X131311203Y-91037330D01*
X131311206Y-91037335D01*
X131397452Y-91152544D01*
X131397455Y-91152547D01*
X131512664Y-91238793D01*
X131512671Y-91238797D01*
X131557618Y-91255561D01*
X131647517Y-91289091D01*
X131707127Y-91295500D01*
X132225500Y-91295499D01*
X132292539Y-91315183D01*
X132338294Y-91367987D01*
X132349500Y-91419499D01*
X132349500Y-91421274D01*
X132331617Y-91485423D01*
X132316523Y-91510391D01*
X132316519Y-91510400D01*
X132306606Y-91542213D01*
X132291327Y-91574207D01*
X132273368Y-91601086D01*
X132273365Y-91601091D01*
X132197950Y-91783160D01*
X132197947Y-91783170D01*
X132159500Y-91976456D01*
X132159500Y-93373544D01*
X132197363Y-93563896D01*
X132197364Y-93563896D01*
X132197949Y-93566835D01*
X132197950Y-93566840D01*
X132273364Y-93748907D01*
X132273371Y-93748920D01*
X132382859Y-93912780D01*
X132382860Y-93912781D01*
X132382861Y-93912782D01*
X132522218Y-94052139D01*
X132522219Y-94052139D01*
X132529286Y-94059206D01*
X132529285Y-94059206D01*
X132529289Y-94059209D01*
X134777215Y-96307137D01*
X134777219Y-96307140D01*
X134941079Y-96416628D01*
X134941085Y-96416631D01*
X134941086Y-96416632D01*
X135123165Y-96492052D01*
X135316455Y-96530500D01*
X135316458Y-96530501D01*
X135316460Y-96530501D01*
X135519655Y-96530501D01*
X135519675Y-96530500D01*
X135791459Y-96530500D01*
X140377552Y-96530500D01*
X140444591Y-96550185D01*
X140465233Y-96566819D01*
X145083181Y-101184767D01*
X145116666Y-101246090D01*
X145119500Y-101272448D01*
X145119500Y-101444480D01*
X145099815Y-101511519D01*
X145047011Y-101557274D01*
X144977853Y-101567218D01*
X144914297Y-101538193D01*
X144907819Y-101532161D01*
X144855188Y-101479530D01*
X144855185Y-101479528D01*
X144709606Y-101391522D01*
X144677780Y-101381604D01*
X144645786Y-101366324D01*
X144618914Y-101348369D01*
X144618911Y-101348367D01*
X144618910Y-101348367D01*
X144436835Y-101272949D01*
X144436827Y-101272947D01*
X144243543Y-101234500D01*
X144243540Y-101234500D01*
X144046459Y-101234500D01*
X144046456Y-101234500D01*
X143853171Y-101272947D01*
X143853163Y-101272949D01*
X143671087Y-101348367D01*
X143644210Y-101366326D01*
X143612211Y-101381607D01*
X143580397Y-101391520D01*
X143580394Y-101391522D01*
X143447900Y-101471617D01*
X143383752Y-101489500D01*
X142141457Y-101489500D01*
X141948170Y-101527947D01*
X141948160Y-101527950D01*
X141766091Y-101603365D01*
X141766087Y-101603367D01*
X141766086Y-101603368D01*
X141739207Y-101621327D01*
X141707213Y-101636606D01*
X141675400Y-101646519D01*
X141675396Y-101646520D01*
X141529811Y-101734530D01*
X141409530Y-101854811D01*
X141321521Y-102000396D01*
X141302792Y-102060499D01*
X141264054Y-102118647D01*
X141209605Y-102142435D01*
X141242223Y-102168619D01*
X141264412Y-102234872D01*
X141264500Y-102239531D01*
X141264500Y-102253564D01*
X141262117Y-102277756D01*
X141239500Y-102391456D01*
X141239500Y-102391459D01*
X141239500Y-102588541D01*
X141239500Y-102588543D01*
X141239499Y-102588543D01*
X141262117Y-102702242D01*
X141264500Y-102726434D01*
X141264500Y-102746616D01*
X141270914Y-102817196D01*
X141308188Y-102936815D01*
X141321212Y-102978611D01*
X141322362Y-103048471D01*
X141285561Y-103107863D01*
X141222492Y-103137931D01*
X141202826Y-103139500D01*
X141141602Y-103139500D01*
X141074563Y-103119815D01*
X141028808Y-103067011D01*
X141025420Y-103058833D01*
X141013797Y-103027671D01*
X141013793Y-103027664D01*
X140927547Y-102912455D01*
X140927544Y-102912452D01*
X140825144Y-102835795D01*
X140783273Y-102779861D01*
X140778289Y-102710170D01*
X140795644Y-102668713D01*
X140909450Y-102494521D01*
X141000685Y-102286526D01*
X141020294Y-102209090D01*
X141055834Y-102148935D01*
X141113579Y-102119893D01*
X141079001Y-102088919D01*
X141060424Y-102021564D01*
X141060831Y-102013368D01*
X141065078Y-101962123D01*
X141073686Y-101858235D01*
X141075197Y-101840005D01*
X141075197Y-101839994D01*
X141059165Y-101646520D01*
X141056441Y-101613650D01*
X141000685Y-101393474D01*
X140909450Y-101185479D01*
X140785224Y-100995337D01*
X140631396Y-100828235D01*
X140631391Y-100828231D01*
X140631389Y-100828229D01*
X140452169Y-100688736D01*
X140452163Y-100688732D01*
X140252411Y-100580631D01*
X140252406Y-100580629D01*
X140037593Y-100506884D01*
X139888239Y-100481961D01*
X139813563Y-100469500D01*
X139586437Y-100469500D01*
X139530430Y-100478846D01*
X139362406Y-100506884D01*
X139142739Y-100582296D01*
X139142268Y-100580926D01*
X139101370Y-100589500D01*
X137411578Y-100589500D01*
X137217173Y-100620290D01*
X137029969Y-100681117D01*
X136854594Y-100770476D01*
X136777046Y-100826819D01*
X136695354Y-100886172D01*
X136695352Y-100886174D01*
X136695351Y-100886174D01*
X135297681Y-102283845D01*
X135236358Y-102317330D01*
X135166666Y-102312346D01*
X135122319Y-102283845D01*
X132099193Y-99260719D01*
X132065708Y-99199396D01*
X132062874Y-99173038D01*
X132062874Y-98961580D01*
X132057512Y-98927730D01*
X132057512Y-98927727D01*
X132032084Y-98767177D01*
X132032082Y-98767171D01*
X132018942Y-98726728D01*
X132012873Y-98688411D01*
X132012873Y-98012129D01*
X132012872Y-98012123D01*
X132012871Y-98012116D01*
X132006465Y-97952517D01*
X131956170Y-97817669D01*
X131956169Y-97817668D01*
X131956167Y-97817664D01*
X131869921Y-97702455D01*
X131869918Y-97702452D01*
X131754709Y-97616206D01*
X131754702Y-97616202D01*
X131619856Y-97565908D01*
X131619857Y-97565908D01*
X131560257Y-97559501D01*
X131560255Y-97559500D01*
X131560247Y-97559500D01*
X131560238Y-97559500D01*
X130064503Y-97559500D01*
X130064497Y-97559501D01*
X130004890Y-97565908D01*
X129870045Y-97616202D01*
X129870038Y-97616206D01*
X129754829Y-97702452D01*
X129754826Y-97702455D01*
X129668580Y-97817664D01*
X129668576Y-97817671D01*
X129618282Y-97952517D01*
X129611875Y-98012116D01*
X129611875Y-98012123D01*
X129611874Y-98012135D01*
X129611874Y-98165500D01*
X129592189Y-98232539D01*
X129539385Y-98278294D01*
X129487874Y-98289500D01*
X127598630Y-98289500D01*
X127557731Y-98280926D01*
X127557261Y-98282296D01*
X127337593Y-98206884D01*
X127188239Y-98181961D01*
X127113563Y-98169500D01*
X126886437Y-98169500D01*
X126830430Y-98178846D01*
X126662406Y-98206884D01*
X126447593Y-98280629D01*
X126447588Y-98280631D01*
X126247836Y-98388732D01*
X126247830Y-98388736D01*
X126068610Y-98528229D01*
X126068607Y-98528232D01*
X125914776Y-98695337D01*
X125790548Y-98885482D01*
X125699314Y-99093475D01*
X125643558Y-99313653D01*
X125624803Y-99539994D01*
X125624803Y-99540005D01*
X125643558Y-99766346D01*
X125699314Y-99986524D01*
X125768520Y-100144299D01*
X125790550Y-100194521D01*
X125914776Y-100384663D01*
X126068604Y-100551765D01*
X126068607Y-100551767D01*
X126068610Y-100551770D01*
X126120486Y-100592147D01*
X126161299Y-100648857D01*
X126164974Y-100718630D01*
X126130342Y-100779313D01*
X126120486Y-100787853D01*
X126068610Y-100828229D01*
X126068607Y-100828232D01*
X126068604Y-100828234D01*
X126068604Y-100828235D01*
X125964927Y-100940858D01*
X125914776Y-100995337D01*
X125790548Y-101185482D01*
X125699314Y-101393475D01*
X125643558Y-101613653D01*
X125624803Y-101839994D01*
X125624803Y-101840005D01*
X125643558Y-102066346D01*
X125699314Y-102286524D01*
X125790549Y-102494520D01*
X125904352Y-102668709D01*
X125924539Y-102735598D01*
X125905359Y-102802784D01*
X125874856Y-102835795D01*
X125848086Y-102855835D01*
X125836157Y-102864765D01*
X125770696Y-102889184D01*
X125761846Y-102889500D01*
X124923294Y-102889500D01*
X124856255Y-102869815D01*
X124810500Y-102817011D01*
X124799803Y-102754277D01*
X124800500Y-102746616D01*
X124800500Y-102726434D01*
X124802883Y-102702242D01*
X124825500Y-102588543D01*
X124825500Y-97056456D01*
X124787052Y-96863170D01*
X124787051Y-96863169D01*
X124787051Y-96863165D01*
X124726905Y-96717958D01*
X124711635Y-96681092D01*
X124711628Y-96681079D01*
X124602139Y-96517218D01*
X124602136Y-96517214D01*
X124462785Y-96377863D01*
X124462781Y-96377860D01*
X124298920Y-96268371D01*
X124298907Y-96268364D01*
X124116839Y-96192950D01*
X124116829Y-96192947D01*
X123923543Y-96154500D01*
X123923541Y-96154500D01*
X123726459Y-96154500D01*
X123726457Y-96154500D01*
X123533170Y-96192947D01*
X123533160Y-96192950D01*
X123351093Y-96268364D01*
X123351075Y-96268374D01*
X123258889Y-96329971D01*
X123192212Y-96350849D01*
X123124832Y-96332364D01*
X123121108Y-96329971D01*
X123112806Y-96324424D01*
X123075385Y-96299420D01*
X123028913Y-96268368D01*
X122846835Y-96192949D01*
X122846827Y-96192947D01*
X122653543Y-96154500D01*
X122653540Y-96154500D01*
X122456459Y-96154500D01*
X122456456Y-96154500D01*
X122263171Y-96192947D01*
X122263163Y-96192949D01*
X122081087Y-96268367D01*
X122081078Y-96268372D01*
X121917218Y-96377860D01*
X121917214Y-96377863D01*
X121597863Y-96697214D01*
X121597860Y-96697218D01*
X121488371Y-96861079D01*
X121488366Y-96861088D01*
X121436574Y-96986128D01*
X121412950Y-97043159D01*
X121412949Y-97043163D01*
X121412949Y-97043164D01*
X121410304Y-97056460D01*
X121410303Y-97056462D01*
X121374500Y-97236454D01*
X121374500Y-107310587D01*
X121354815Y-107377626D01*
X121302011Y-107423381D01*
X121232853Y-107433325D01*
X121169297Y-107404300D01*
X121157272Y-107392346D01*
X120974758Y-107184229D01*
X120752955Y-106989713D01*
X120507667Y-106825817D01*
X120507660Y-106825813D01*
X120243080Y-106695337D01*
X119963730Y-106600509D01*
X119963724Y-106600507D01*
X119963722Y-106600507D01*
X119674380Y-106542954D01*
X119674373Y-106542953D01*
X119674363Y-106542952D01*
X119380007Y-106523659D01*
X119379993Y-106523659D01*
X119085636Y-106542952D01*
X119085624Y-106542953D01*
X119085620Y-106542954D01*
X119085612Y-106542955D01*
X119085609Y-106542956D01*
X118796283Y-106600506D01*
X118796269Y-106600509D01*
X118516919Y-106695337D01*
X118252334Y-106825816D01*
X118010223Y-106987590D01*
X117943545Y-107008468D01*
X117941332Y-107008488D01*
X117689854Y-107008488D01*
X117622815Y-106988803D01*
X117602173Y-106972169D01*
X113566819Y-102936815D01*
X113533334Y-102875492D01*
X113530500Y-102849134D01*
X113530500Y-91873957D01*
X113550185Y-91806918D01*
X113589407Y-91768416D01*
X113598656Y-91762712D01*
X113722712Y-91638656D01*
X113814814Y-91489334D01*
X113869999Y-91322797D01*
X113880500Y-91220009D01*
X113880499Y-89135781D01*
X113900184Y-89068743D01*
X113916818Y-89048101D01*
X114933101Y-88031819D01*
X114994424Y-87998334D01*
X115020782Y-87995500D01*
X134083543Y-87995500D01*
X134213582Y-87969632D01*
X134276835Y-87957051D01*
X134458914Y-87881632D01*
X134622782Y-87772139D01*
X134622781Y-87772139D01*
X134627847Y-87768755D01*
X134628867Y-87770282D01*
X134685255Y-87746334D01*
X134699610Y-87745500D01*
X147393920Y-87745500D01*
X147491462Y-87726096D01*
X147538913Y-87716658D01*
X147675495Y-87660084D01*
X147724729Y-87627186D01*
X147798416Y-87577952D01*
X148433413Y-86942953D01*
X148433416Y-86942952D01*
X148537952Y-86838416D01*
X148620084Y-86715495D01*
X148676659Y-86578913D01*
X148705500Y-86433918D01*
X148705500Y-86433905D01*
X148706054Y-86428284D01*
X148732208Y-86363494D01*
X148789239Y-86323130D01*
X148859039Y-86320006D01*
X148919447Y-86355115D01*
G37*
%TD.AperFunction*%
%TA.AperFunction,Conductor*%
G36*
X141653834Y-76045046D02*
G01*
X141709767Y-76086918D01*
X141734184Y-76152382D01*
X141734500Y-76161228D01*
X141734500Y-76572870D01*
X141734501Y-76572876D01*
X141740908Y-76632483D01*
X141791202Y-76767328D01*
X141791206Y-76767335D01*
X141877452Y-76882544D01*
X141877455Y-76882547D01*
X141992664Y-76968793D01*
X141992671Y-76968797D01*
X142127517Y-77019091D01*
X142127516Y-77019091D01*
X142133981Y-77019786D01*
X142187127Y-77025500D01*
X143532872Y-77025499D01*
X143592483Y-77019091D01*
X143627243Y-77006125D01*
X143696933Y-77001140D01*
X143758256Y-77034624D01*
X145263181Y-78539549D01*
X145296666Y-78600872D01*
X145299500Y-78627230D01*
X145299500Y-81450500D01*
X145279815Y-81517539D01*
X145227011Y-81563294D01*
X145175500Y-81574500D01*
X144786662Y-81574500D01*
X144786644Y-81574501D01*
X144687292Y-81584650D01*
X144687289Y-81584651D01*
X144526305Y-81637996D01*
X144526294Y-81638001D01*
X144381959Y-81727029D01*
X144381955Y-81727032D01*
X144262032Y-81846955D01*
X144262029Y-81846959D01*
X144173001Y-81991294D01*
X144172996Y-81991305D01*
X144119651Y-82152290D01*
X144109500Y-82251647D01*
X144109500Y-82848337D01*
X144109501Y-82848355D01*
X144119650Y-82947707D01*
X144119651Y-82947710D01*
X144172996Y-83108694D01*
X144172999Y-83108701D01*
X144208125Y-83165648D01*
X144249465Y-83232670D01*
X144267906Y-83300062D01*
X144246984Y-83366725D01*
X144218239Y-83397033D01*
X144097452Y-83487455D01*
X144011206Y-83602664D01*
X144011202Y-83602671D01*
X143960908Y-83737517D01*
X143954501Y-83797116D01*
X143954500Y-83797135D01*
X143954500Y-85142870D01*
X143954501Y-85142876D01*
X143960908Y-85202483D01*
X144011203Y-85337330D01*
X144014329Y-85343054D01*
X144029500Y-85402486D01*
X144029500Y-86120500D01*
X144009815Y-86187539D01*
X143957011Y-86233294D01*
X143905500Y-86244500D01*
X140996006Y-86244500D01*
X140928967Y-86224815D01*
X140883212Y-86172011D01*
X140873268Y-86102853D01*
X140878076Y-86082180D01*
X140882969Y-86067121D01*
X140902755Y-85878865D01*
X140882969Y-85690609D01*
X140824474Y-85510581D01*
X140729828Y-85346649D01*
X140603166Y-85205977D01*
X140516315Y-85142876D01*
X140450029Y-85094716D01*
X140450024Y-85094713D01*
X140277102Y-85017722D01*
X140277097Y-85017720D01*
X140124817Y-84985353D01*
X140091941Y-84978365D01*
X139902649Y-84978365D01*
X139870192Y-84985263D01*
X139717492Y-85017720D01*
X139717487Y-85017722D01*
X139544565Y-85094713D01*
X139532723Y-85103318D01*
X139466917Y-85126798D01*
X139459837Y-85127000D01*
X139379858Y-85127000D01*
X139312819Y-85107315D01*
X139267064Y-85054511D01*
X139257120Y-84985353D01*
X139274320Y-84937903D01*
X139342544Y-84827295D01*
X139342543Y-84827295D01*
X139342549Y-84827287D01*
X139395436Y-84667685D01*
X139405500Y-84569174D01*
X139405500Y-84035826D01*
X139395436Y-83937315D01*
X139342549Y-83777713D01*
X139342545Y-83777707D01*
X139342544Y-83777704D01*
X139254283Y-83634612D01*
X139254280Y-83634608D01*
X139135391Y-83515719D01*
X139135387Y-83515716D01*
X138992295Y-83427455D01*
X138992289Y-83427452D01*
X138992287Y-83427451D01*
X138832685Y-83374564D01*
X138832683Y-83374563D01*
X138734181Y-83364500D01*
X138734174Y-83364500D01*
X138125826Y-83364500D01*
X138125818Y-83364500D01*
X138027316Y-83374563D01*
X138027315Y-83374564D01*
X137959508Y-83397033D01*
X137867715Y-83427450D01*
X137867704Y-83427455D01*
X137724612Y-83515716D01*
X137724608Y-83515719D01*
X137605720Y-83634607D01*
X137605719Y-83634609D01*
X137589688Y-83660598D01*
X137537742Y-83707321D01*
X137484151Y-83719500D01*
X136788467Y-83719500D01*
X136721428Y-83699815D01*
X136675673Y-83647011D01*
X136672285Y-83638834D01*
X136658796Y-83602669D01*
X136658793Y-83602664D01*
X136572547Y-83487455D01*
X136572544Y-83487452D01*
X136457335Y-83401206D01*
X136457328Y-83401202D01*
X136322486Y-83350910D01*
X136322485Y-83350909D01*
X136322483Y-83350909D01*
X136262873Y-83344500D01*
X136262863Y-83344500D01*
X135517129Y-83344500D01*
X135517108Y-83344502D01*
X135507747Y-83345508D01*
X135438988Y-83333098D01*
X135387854Y-83285485D01*
X135370500Y-83222218D01*
X135370500Y-82277229D01*
X135390185Y-82210190D01*
X135406814Y-82189553D01*
X141522821Y-76073545D01*
X141584142Y-76040062D01*
X141653834Y-76045046D01*
G37*
%TD.AperFunction*%
%TA.AperFunction,Conductor*%
G36*
X157223039Y-66019685D02*
G01*
X157268794Y-66072489D01*
X157280000Y-66124000D01*
X157280000Y-116676000D01*
X157260315Y-116743039D01*
X157207511Y-116788794D01*
X157156000Y-116800000D01*
X106604000Y-116800000D01*
X106536961Y-116780315D01*
X106491206Y-116727511D01*
X106480000Y-116676000D01*
X106480000Y-111778987D01*
X108174357Y-111778987D01*
X108174357Y-111778988D01*
X108194884Y-112000523D01*
X108194885Y-112000525D01*
X108255769Y-112214511D01*
X108255775Y-112214526D01*
X108354938Y-112413671D01*
X108354943Y-112413679D01*
X108489020Y-112591226D01*
X108653437Y-112741111D01*
X108653439Y-112741113D01*
X108842595Y-112858233D01*
X108842596Y-112858233D01*
X108842599Y-112858235D01*
X109050060Y-112938606D01*
X109268757Y-112979488D01*
X109268759Y-112979488D01*
X109491241Y-112979488D01*
X109491243Y-112979488D01*
X109709940Y-112938606D01*
X109917401Y-112858235D01*
X110106562Y-112741112D01*
X110270981Y-112591224D01*
X110405058Y-112413677D01*
X110504229Y-112214516D01*
X110565115Y-112000524D01*
X110585643Y-111778988D01*
X110583883Y-111759999D01*
X110565115Y-111557452D01*
X110565114Y-111557450D01*
X110559711Y-111538462D01*
X110504229Y-111343460D01*
X110504224Y-111343449D01*
X110405061Y-111144304D01*
X110405056Y-111144296D01*
X110270979Y-110966749D01*
X110106562Y-110816864D01*
X110106560Y-110816862D01*
X109917404Y-110699742D01*
X109917398Y-110699740D01*
X109709940Y-110619370D01*
X109491243Y-110578488D01*
X109268757Y-110578488D01*
X109050060Y-110619370D01*
X109023912Y-110629500D01*
X108842601Y-110699740D01*
X108842595Y-110699742D01*
X108653439Y-110816862D01*
X108653437Y-110816864D01*
X108489020Y-110966749D01*
X108354943Y-111144296D01*
X108354938Y-111144304D01*
X108255775Y-111343449D01*
X108255769Y-111343464D01*
X108194885Y-111557450D01*
X108194884Y-111557452D01*
X108174357Y-111778987D01*
X106480000Y-111778987D01*
X106480000Y-100778987D01*
X108174357Y-100778987D01*
X108174357Y-100778988D01*
X108194884Y-101000523D01*
X108194885Y-101000525D01*
X108255769Y-101214511D01*
X108255775Y-101214526D01*
X108354938Y-101413671D01*
X108354943Y-101413679D01*
X108489020Y-101591226D01*
X108653437Y-101741111D01*
X108653439Y-101741113D01*
X108842595Y-101858233D01*
X108842596Y-101858233D01*
X108842599Y-101858235D01*
X109050060Y-101938606D01*
X109268757Y-101979488D01*
X109268759Y-101979488D01*
X109491241Y-101979488D01*
X109491243Y-101979488D01*
X109709940Y-101938606D01*
X109820709Y-101895693D01*
X109890329Y-101889832D01*
X109952070Y-101922542D01*
X109986324Y-101983438D01*
X109989500Y-102011321D01*
X109989500Y-103513943D01*
X109989499Y-103513977D01*
X109989499Y-103749913D01*
X110019792Y-103980006D01*
X110051854Y-104099660D01*
X110079863Y-104204191D01*
X110168677Y-104418606D01*
X110168685Y-104418623D01*
X110284720Y-104619604D01*
X110284721Y-104619606D01*
X110426009Y-104803736D01*
X110426015Y-104803743D01*
X110593219Y-104970947D01*
X110593249Y-104970975D01*
X115568693Y-109946419D01*
X115568730Y-109946458D01*
X115735244Y-110112972D01*
X115735251Y-110112978D01*
X115919381Y-110254266D01*
X115919383Y-110254267D01*
X116120364Y-110370302D01*
X116120367Y-110370303D01*
X116120375Y-110370308D01*
X116334797Y-110459125D01*
X116558978Y-110519194D01*
X116777445Y-110547956D01*
X116787456Y-110549274D01*
X116789082Y-110549488D01*
X117941332Y-110549488D01*
X118008371Y-110569173D01*
X118010222Y-110570386D01*
X118252332Y-110732158D01*
X118252339Y-110732162D01*
X118270111Y-110740926D01*
X118516923Y-110862640D01*
X118796278Y-110957469D01*
X119085620Y-111015022D01*
X119090304Y-111015329D01*
X119379993Y-111034317D01*
X119380000Y-111034317D01*
X119380007Y-111034317D01*
X119615675Y-111018869D01*
X119674380Y-111015022D01*
X119963722Y-110957469D01*
X120243077Y-110862640D01*
X120507665Y-110732160D01*
X120752957Y-110568261D01*
X120974758Y-110373746D01*
X121157272Y-110165628D01*
X121216274Y-110128205D01*
X121286142Y-110128621D01*
X121344694Y-110166744D01*
X121373341Y-110230471D01*
X121374500Y-110247388D01*
X121374500Y-112313542D01*
X121383376Y-112358163D01*
X121383376Y-112358164D01*
X121412947Y-112506828D01*
X121412949Y-112506836D01*
X121424408Y-112534500D01*
X121424408Y-112534501D01*
X121488364Y-112688907D01*
X121488371Y-112688920D01*
X121597859Y-112852780D01*
X121597860Y-112852781D01*
X121597861Y-112852782D01*
X121737218Y-112992139D01*
X122032860Y-113287781D01*
X122032861Y-113287781D01*
X122032861Y-113287782D01*
X122172218Y-113427139D01*
X122336086Y-113536632D01*
X122433148Y-113576836D01*
X122518164Y-113612051D01*
X122557413Y-113619858D01*
X122588032Y-113625949D01*
X122649943Y-113658334D01*
X122684517Y-113719049D01*
X122680778Y-113788819D01*
X122674327Y-113803859D01*
X122666118Y-113819970D01*
X122605290Y-114007173D01*
X122574500Y-114201577D01*
X122574500Y-114398422D01*
X122605290Y-114592826D01*
X122666117Y-114780029D01*
X122755476Y-114955405D01*
X122871172Y-115114646D01*
X123010354Y-115253828D01*
X123169595Y-115369524D01*
X123244092Y-115407482D01*
X123344970Y-115458882D01*
X123344972Y-115458882D01*
X123344975Y-115458884D01*
X123445317Y-115491487D01*
X123532173Y-115519709D01*
X123726578Y-115550500D01*
X123726583Y-115550500D01*
X125761846Y-115550500D01*
X125828885Y-115570185D01*
X125836146Y-115575225D01*
X125887665Y-115613793D01*
X125887668Y-115613795D01*
X125887671Y-115613797D01*
X126022517Y-115664091D01*
X126022516Y-115664091D01*
X126029444Y-115664835D01*
X126082127Y-115670500D01*
X127917872Y-115670499D01*
X127977483Y-115664091D01*
X128112331Y-115613796D01*
X128227546Y-115527546D01*
X128313796Y-115412331D01*
X128364091Y-115277483D01*
X128370500Y-115217873D01*
X128370499Y-113928334D01*
X128390184Y-113861296D01*
X128442987Y-113815541D01*
X128512146Y-113805597D01*
X128575702Y-113834622D01*
X128582180Y-113840654D01*
X129618181Y-114876655D01*
X129651666Y-114937978D01*
X129654500Y-114964336D01*
X129654500Y-115347870D01*
X129654501Y-115347876D01*
X129660908Y-115407483D01*
X129711202Y-115542328D01*
X129711206Y-115542335D01*
X129797452Y-115657544D01*
X129797455Y-115657547D01*
X129912664Y-115743793D01*
X129912671Y-115743797D01*
X130047517Y-115794091D01*
X130047516Y-115794091D01*
X130054444Y-115794835D01*
X130107127Y-115800500D01*
X131602872Y-115800499D01*
X131662483Y-115794091D01*
X131797331Y-115743796D01*
X131912546Y-115657546D01*
X131998796Y-115542331D01*
X132049091Y-115407483D01*
X132055500Y-115347873D01*
X132055499Y-114439746D01*
X132057026Y-114420348D01*
X132060500Y-114398414D01*
X132060500Y-114201582D01*
X132057026Y-114179649D01*
X132055499Y-114160251D01*
X132055499Y-113252129D01*
X132055498Y-113252123D01*
X132055445Y-113251633D01*
X132049091Y-113192517D01*
X132047422Y-113185455D01*
X132051158Y-113115685D01*
X132092022Y-113059011D01*
X132157039Y-113033427D01*
X132225567Y-113047055D01*
X132255778Y-113069252D01*
X134018181Y-114831655D01*
X134051666Y-114892978D01*
X134054500Y-114919336D01*
X134054500Y-115347870D01*
X134054501Y-115347876D01*
X134060908Y-115407483D01*
X134111202Y-115542328D01*
X134111206Y-115542335D01*
X134197452Y-115657544D01*
X134197455Y-115657547D01*
X134312664Y-115743793D01*
X134312671Y-115743797D01*
X134447517Y-115794091D01*
X134447516Y-115794091D01*
X134454444Y-115794835D01*
X134507127Y-115800500D01*
X136002872Y-115800499D01*
X136062483Y-115794091D01*
X136197331Y-115743796D01*
X136312546Y-115657546D01*
X136398796Y-115542331D01*
X136449091Y-115407483D01*
X136455500Y-115347873D01*
X136455499Y-114919334D01*
X136475183Y-114852296D01*
X136491813Y-114831659D01*
X138036655Y-113286819D01*
X138097978Y-113253334D01*
X138124336Y-113250500D01*
X138205731Y-113250500D01*
X138272770Y-113270185D01*
X138318525Y-113322989D01*
X138329110Y-113378806D01*
X138329500Y-113378806D01*
X138329500Y-113380863D01*
X138329553Y-113381143D01*
X138329500Y-113382130D01*
X138329500Y-115217870D01*
X138329501Y-115217876D01*
X138335908Y-115277483D01*
X138386202Y-115412328D01*
X138386206Y-115412335D01*
X138472452Y-115527544D01*
X138472455Y-115527547D01*
X138587664Y-115613793D01*
X138587671Y-115613797D01*
X138722517Y-115664091D01*
X138722516Y-115664091D01*
X138729444Y-115664835D01*
X138782127Y-115670500D01*
X139604215Y-115670499D01*
X139671254Y-115690183D01*
X139691896Y-115706818D01*
X139697215Y-115712137D01*
X139697219Y-115712140D01*
X139861079Y-115821628D01*
X139861088Y-115821633D01*
X139902334Y-115838717D01*
X140043165Y-115897052D01*
X140236455Y-115935500D01*
X140236458Y-115935501D01*
X140236460Y-115935501D01*
X140439655Y-115935501D01*
X140439675Y-115935500D01*
X142338543Y-115935500D01*
X142468582Y-115909632D01*
X142531835Y-115897051D01*
X142713914Y-115821632D01*
X142740788Y-115803674D01*
X142772786Y-115788392D01*
X142804606Y-115778478D01*
X142950185Y-115690472D01*
X143070472Y-115570185D01*
X143158478Y-115424606D01*
X143209086Y-115262196D01*
X143215500Y-115191616D01*
X143215500Y-115171434D01*
X143217883Y-115147242D01*
X143240500Y-115033543D01*
X143240500Y-114836456D01*
X143217883Y-114722756D01*
X143215500Y-114698564D01*
X143215500Y-114678386D01*
X143215500Y-114678384D01*
X143209086Y-114607804D01*
X143158787Y-114446388D01*
X143157638Y-114376529D01*
X143194439Y-114317137D01*
X143257508Y-114287069D01*
X143277174Y-114285500D01*
X143988542Y-114285500D01*
X144007870Y-114281655D01*
X144085188Y-114266275D01*
X144181836Y-114247051D01*
X144235165Y-114224961D01*
X144363914Y-114171632D01*
X144527782Y-114062139D01*
X144527781Y-114062139D01*
X144532847Y-114058755D01*
X144533867Y-114060282D01*
X144590255Y-114036334D01*
X144604610Y-114035500D01*
X149678920Y-114035500D01*
X149776462Y-114016096D01*
X149823913Y-114006658D01*
X149960495Y-113950084D01*
X150009729Y-113917186D01*
X150083416Y-113867952D01*
X150328206Y-113623159D01*
X150328210Y-113623157D01*
X150338414Y-113612952D01*
X150338416Y-113612952D01*
X152254428Y-111696938D01*
X152315749Y-111663455D01*
X152385440Y-111668439D01*
X152441374Y-111710311D01*
X152465578Y-111773180D01*
X152484884Y-111981535D01*
X152484885Y-111981537D01*
X152545769Y-112195523D01*
X152545775Y-112195538D01*
X152644938Y-112394683D01*
X152644943Y-112394691D01*
X152779020Y-112572238D01*
X152943437Y-112722123D01*
X152943439Y-112722125D01*
X153132595Y-112839245D01*
X153132596Y-112839245D01*
X153132599Y-112839247D01*
X153340060Y-112919618D01*
X153558757Y-112960500D01*
X153558759Y-112960500D01*
X153781241Y-112960500D01*
X153781243Y-112960500D01*
X153999940Y-112919618D01*
X154207401Y-112839247D01*
X154396562Y-112722124D01*
X154560981Y-112572236D01*
X154695058Y-112394689D01*
X154794229Y-112195528D01*
X154855115Y-111981536D01*
X154875643Y-111760000D01*
X154855115Y-111538464D01*
X154794229Y-111324472D01*
X154794224Y-111324461D01*
X154695061Y-111125316D01*
X154695056Y-111125308D01*
X154560979Y-110947761D01*
X154396562Y-110797876D01*
X154396560Y-110797874D01*
X154207404Y-110680754D01*
X154207398Y-110680752D01*
X153999940Y-110600382D01*
X153781243Y-110559500D01*
X153558757Y-110559500D01*
X153340060Y-110600382D01*
X153319291Y-110608428D01*
X153249667Y-110614288D01*
X153187928Y-110581577D01*
X153153675Y-110520679D01*
X153150500Y-110492800D01*
X153150500Y-102027199D01*
X153170185Y-101960160D01*
X153222989Y-101914405D01*
X153292147Y-101904461D01*
X153319289Y-101911571D01*
X153340060Y-101919618D01*
X153558757Y-101960500D01*
X153558759Y-101960500D01*
X153781241Y-101960500D01*
X153781243Y-101960500D01*
X153999940Y-101919618D01*
X154207401Y-101839247D01*
X154396562Y-101722124D01*
X154560981Y-101572236D01*
X154695058Y-101394689D01*
X154794229Y-101195528D01*
X154855115Y-100981536D01*
X154875643Y-100760000D01*
X154856347Y-100551765D01*
X154855115Y-100538464D01*
X154855114Y-100538462D01*
X154846129Y-100506884D01*
X154794229Y-100324472D01*
X154729519Y-100194517D01*
X154695061Y-100125316D01*
X154695056Y-100125308D01*
X154560979Y-99947761D01*
X154396562Y-99797876D01*
X154396560Y-99797874D01*
X154207404Y-99680754D01*
X154207398Y-99680752D01*
X153999940Y-99600382D01*
X153781243Y-99559500D01*
X153558757Y-99559500D01*
X153340060Y-99600382D01*
X153319291Y-99608428D01*
X153249667Y-99614288D01*
X153187928Y-99581577D01*
X153153675Y-99520679D01*
X153150500Y-99492800D01*
X153150500Y-94541079D01*
X153121659Y-94396092D01*
X153121658Y-94396091D01*
X153121658Y-94396087D01*
X153103690Y-94352708D01*
X153065087Y-94259511D01*
X153065080Y-94259498D01*
X152982952Y-94136585D01*
X152941867Y-94095500D01*
X152878416Y-94032049D01*
X152595274Y-93748907D01*
X151608421Y-92762052D01*
X151608420Y-92762051D01*
X151534681Y-92712781D01*
X151534680Y-92712780D01*
X151485501Y-92679919D01*
X151485488Y-92679912D01*
X151348917Y-92623343D01*
X151348907Y-92623340D01*
X151203920Y-92594500D01*
X151203918Y-92594500D01*
X149764337Y-92594500D01*
X149697298Y-92574815D01*
X149691452Y-92570818D01*
X149677734Y-92560851D01*
X149677729Y-92560848D01*
X149504807Y-92483857D01*
X149504802Y-92483855D01*
X149359001Y-92452865D01*
X149319646Y-92444500D01*
X149130354Y-92444500D01*
X149097897Y-92451398D01*
X148945197Y-92483855D01*
X148945192Y-92483857D01*
X148772270Y-92560848D01*
X148772265Y-92560851D01*
X148619129Y-92672111D01*
X148492466Y-92812785D01*
X148397821Y-92976715D01*
X148397818Y-92976722D01*
X148339327Y-93156740D01*
X148339326Y-93156744D01*
X148334014Y-93207284D01*
X148307430Y-93271896D01*
X148250133Y-93311881D01*
X148180314Y-93314541D01*
X148123013Y-93282001D01*
X148106819Y-93265807D01*
X148073334Y-93204484D01*
X148070500Y-93178126D01*
X148070500Y-91102486D01*
X148085671Y-91043054D01*
X148088795Y-91037332D01*
X148088794Y-91037332D01*
X148088796Y-91037331D01*
X148102285Y-91001166D01*
X148144157Y-90945233D01*
X148209621Y-90920816D01*
X148218467Y-90920500D01*
X149298920Y-90920500D01*
X149396462Y-90901096D01*
X149443913Y-90891658D01*
X149512204Y-90863371D01*
X149580491Y-90835086D01*
X149580492Y-90835085D01*
X149580495Y-90835084D01*
X149642332Y-90793766D01*
X149703416Y-90752952D01*
X150442952Y-90013415D01*
X150494881Y-89935697D01*
X150525084Y-89890495D01*
X150556560Y-89814505D01*
X150561858Y-89801716D01*
X150563911Y-89796758D01*
X150581659Y-89753912D01*
X150610500Y-89608917D01*
X150610500Y-89461082D01*
X150610500Y-86670534D01*
X150630185Y-86603495D01*
X150646819Y-86582853D01*
X150650767Y-86578905D01*
X150684281Y-86545391D01*
X150772549Y-86402287D01*
X150825436Y-86242685D01*
X150835500Y-86144174D01*
X150835500Y-85610826D01*
X150825436Y-85512315D01*
X150772549Y-85352713D01*
X150772545Y-85352707D01*
X150772544Y-85352704D01*
X150684283Y-85209612D01*
X150684280Y-85209608D01*
X150652353Y-85177681D01*
X150618868Y-85116358D01*
X150623852Y-85046666D01*
X150652353Y-85002319D01*
X150684281Y-84970391D01*
X150772549Y-84827287D01*
X150825436Y-84667685D01*
X150835500Y-84569174D01*
X150835500Y-84035826D01*
X150825436Y-83937315D01*
X150772549Y-83777713D01*
X150772545Y-83777707D01*
X150772544Y-83777704D01*
X150684283Y-83634612D01*
X150684280Y-83634608D01*
X150646819Y-83597147D01*
X150613334Y-83535824D01*
X150610500Y-83509466D01*
X150610500Y-79461082D01*
X150606274Y-79439838D01*
X150597896Y-79397720D01*
X150581659Y-79316088D01*
X150548518Y-79236080D01*
X150548518Y-79236079D01*
X150525085Y-79179506D01*
X150525083Y-79179503D01*
X150442954Y-79056588D01*
X150442953Y-79056587D01*
X150442951Y-79056584D01*
X150338416Y-78952049D01*
X144463416Y-73077048D01*
X144463415Y-73077047D01*
X144463413Y-73077045D01*
X144414179Y-73044150D01*
X144381355Y-73022218D01*
X144340495Y-72994916D01*
X144340494Y-72994915D01*
X144340492Y-72994914D01*
X144340490Y-72994913D01*
X144203917Y-72938343D01*
X144203907Y-72938340D01*
X144058920Y-72909500D01*
X144058918Y-72909500D01*
X143792487Y-72909500D01*
X143733058Y-72894331D01*
X143727330Y-72891203D01*
X143592482Y-72840908D01*
X143592483Y-72840908D01*
X143532883Y-72834501D01*
X143532881Y-72834500D01*
X143532873Y-72834500D01*
X143532864Y-72834500D01*
X142187129Y-72834500D01*
X142187123Y-72834501D01*
X142127516Y-72840908D01*
X141992671Y-72891202D01*
X141992664Y-72891206D01*
X141877455Y-72977452D01*
X141877452Y-72977455D01*
X141791206Y-73092664D01*
X141791202Y-73092671D01*
X141740910Y-73227513D01*
X141740909Y-73227517D01*
X141734500Y-73287127D01*
X141734500Y-73287134D01*
X141734500Y-73287135D01*
X141734500Y-74032870D01*
X141734501Y-74032885D01*
X141735508Y-74042243D01*
X141723104Y-74111003D01*
X141675494Y-74162141D01*
X141612219Y-74179500D01*
X141531076Y-74179500D01*
X141502242Y-74185234D01*
X141502243Y-74185235D01*
X141386092Y-74208339D01*
X141386086Y-74208341D01*
X141340242Y-74227331D01*
X141249506Y-74264915D01*
X141230246Y-74277784D01*
X141230245Y-74277783D01*
X141126585Y-74347046D01*
X141126578Y-74347052D01*
X138458182Y-77015448D01*
X138396859Y-77048933D01*
X138327167Y-77043949D01*
X138271234Y-77002077D01*
X138254319Y-76971099D01*
X138228798Y-76902672D01*
X138224547Y-76894888D01*
X138227757Y-76893134D01*
X138209361Y-76844001D01*
X138224127Y-76775709D01*
X138224752Y-76774736D01*
X138228797Y-76767329D01*
X138269419Y-76658414D01*
X138279091Y-76632483D01*
X138285500Y-76572873D01*
X138285499Y-75827128D01*
X138279091Y-75767517D01*
X138279091Y-75767516D01*
X138228797Y-75632670D01*
X138224547Y-75624888D01*
X138227757Y-75623134D01*
X138209361Y-75574001D01*
X138224127Y-75505709D01*
X138224752Y-75504736D01*
X138228797Y-75497329D01*
X138269418Y-75388417D01*
X138279091Y-75362483D01*
X138285500Y-75302873D01*
X138285499Y-74557128D01*
X138279091Y-74497517D01*
X138279091Y-74497516D01*
X138228797Y-74362670D01*
X138224547Y-74354888D01*
X138227757Y-74353134D01*
X138209361Y-74304001D01*
X138224127Y-74235709D01*
X138224752Y-74234736D01*
X138228797Y-74227329D01*
X138272183Y-74111003D01*
X138279091Y-74092483D01*
X138285500Y-74032873D01*
X138285499Y-73287128D01*
X138279091Y-73227517D01*
X138241893Y-73127785D01*
X138228797Y-73092671D01*
X138228793Y-73092664D01*
X138142547Y-72977455D01*
X138142544Y-72977452D01*
X138027335Y-72891206D01*
X138027328Y-72891202D01*
X137892482Y-72840908D01*
X137892483Y-72840908D01*
X137832883Y-72834501D01*
X137832881Y-72834500D01*
X137832873Y-72834500D01*
X137832865Y-72834500D01*
X137763019Y-72834500D01*
X137695980Y-72814815D01*
X137694181Y-72813637D01*
X137633914Y-72773368D01*
X137633907Y-72773364D01*
X137451839Y-72697950D01*
X137451829Y-72697947D01*
X137258543Y-72659500D01*
X137258541Y-72659500D01*
X134521459Y-72659500D01*
X134521457Y-72659500D01*
X134445448Y-72674619D01*
X134407756Y-72682117D01*
X134383566Y-72684500D01*
X134363384Y-72684500D01*
X134344145Y-72686248D01*
X134292807Y-72690913D01*
X134130393Y-72741522D01*
X133984811Y-72829530D01*
X133984810Y-72829531D01*
X133882681Y-72931661D01*
X133821358Y-72965146D01*
X133751666Y-72960162D01*
X133707319Y-72931661D01*
X133605188Y-72829530D01*
X133554447Y-72798856D01*
X133459606Y-72741522D01*
X133297196Y-72690914D01*
X133297194Y-72690913D01*
X133297192Y-72690913D01*
X133247778Y-72686423D01*
X133226616Y-72684500D01*
X132713384Y-72684500D01*
X132694145Y-72686248D01*
X132642807Y-72690913D01*
X132480393Y-72741522D01*
X132334811Y-72829530D01*
X132334811Y-72829531D01*
X132291163Y-72873180D01*
X132229840Y-72906666D01*
X132203481Y-72909500D01*
X131984337Y-72909500D01*
X131917298Y-72889815D01*
X131911452Y-72885818D01*
X131897734Y-72875851D01*
X131897729Y-72875848D01*
X131724807Y-72798857D01*
X131724802Y-72798855D01*
X131579001Y-72767865D01*
X131539646Y-72759500D01*
X131350354Y-72759500D01*
X131317897Y-72766398D01*
X131165197Y-72798855D01*
X131165192Y-72798857D01*
X130992270Y-72875848D01*
X130992265Y-72875851D01*
X130839129Y-72987111D01*
X130712466Y-73127785D01*
X130617821Y-73291715D01*
X130617818Y-73291722D01*
X130575984Y-73420476D01*
X130559326Y-73471744D01*
X130539540Y-73660000D01*
X130553470Y-73792541D01*
X130540902Y-73861268D01*
X130493170Y-73912292D01*
X130430150Y-73929500D01*
X129394500Y-73929500D01*
X129327461Y-73909815D01*
X129281706Y-73857011D01*
X129270500Y-73805500D01*
X129270500Y-73086457D01*
X129232051Y-72893165D01*
X129232050Y-72893162D01*
X129231252Y-72891236D01*
X129231231Y-72891188D01*
X129230662Y-72889815D01*
X129176685Y-72759500D01*
X129156635Y-72711093D01*
X129156633Y-72711089D01*
X129156632Y-72711087D01*
X129147854Y-72697950D01*
X129047139Y-72547218D01*
X128904686Y-72404765D01*
X128904655Y-72404736D01*
X127006478Y-70506559D01*
X127006458Y-70506537D01*
X126862784Y-70362863D01*
X126862780Y-70362860D01*
X126698919Y-70253371D01*
X126698910Y-70253366D01*
X126619957Y-70220663D01*
X126570164Y-70200038D01*
X126516835Y-70177949D01*
X126516831Y-70177948D01*
X126516827Y-70177946D01*
X126420187Y-70158724D01*
X126323543Y-70139500D01*
X126323540Y-70139500D01*
X117993958Y-70139500D01*
X117926919Y-70119815D01*
X117888420Y-70080598D01*
X117882712Y-70071344D01*
X117758657Y-69947289D01*
X117758656Y-69947288D01*
X117609334Y-69855186D01*
X117442797Y-69800001D01*
X117442795Y-69800000D01*
X117340010Y-69789500D01*
X115789998Y-69789500D01*
X115789981Y-69789501D01*
X115687203Y-69800000D01*
X115687200Y-69800001D01*
X115520668Y-69855185D01*
X115520663Y-69855187D01*
X115371342Y-69947289D01*
X115247289Y-70071342D01*
X115155187Y-70220663D01*
X115155185Y-70220668D01*
X115127349Y-70304670D01*
X115100001Y-70387203D01*
X115100001Y-70387204D01*
X115100000Y-70387204D01*
X115089500Y-70489983D01*
X115089500Y-71790001D01*
X115089501Y-71790018D01*
X115100000Y-71892796D01*
X115100001Y-71892799D01*
X115155185Y-72059331D01*
X115155186Y-72059334D01*
X115247287Y-72208655D01*
X115247289Y-72208657D01*
X115371344Y-72332712D01*
X115526120Y-72428178D01*
X115572845Y-72480126D01*
X115584068Y-72549088D01*
X115556224Y-72613171D01*
X115548706Y-72621398D01*
X115409889Y-72760215D01*
X115284951Y-72932179D01*
X115188444Y-73121585D01*
X115122753Y-73323760D01*
X115099315Y-73471744D01*
X115089500Y-73533713D01*
X115089500Y-73746287D01*
X115098878Y-73805500D01*
X115103486Y-73834594D01*
X115122754Y-73956243D01*
X115167022Y-74092486D01*
X115188444Y-74158414D01*
X115284951Y-74347820D01*
X115409890Y-74519786D01*
X115560209Y-74670105D01*
X115560214Y-74670109D01*
X115724793Y-74789682D01*
X115767459Y-74845011D01*
X115773438Y-74914625D01*
X115740833Y-74976420D01*
X115724793Y-74990318D01*
X115560214Y-75109890D01*
X115560209Y-75109894D01*
X115409890Y-75260213D01*
X115284951Y-75432179D01*
X115188444Y-75621585D01*
X115122753Y-75823760D01*
X115089500Y-76033713D01*
X115089500Y-76246287D01*
X115122754Y-76456243D01*
X115160649Y-76572872D01*
X115188444Y-76658414D01*
X115284951Y-76847820D01*
X115409890Y-77019786D01*
X115560209Y-77170105D01*
X115560214Y-77170109D01*
X115724793Y-77289682D01*
X115767459Y-77345011D01*
X115773438Y-77414625D01*
X115740833Y-77476420D01*
X115724793Y-77490318D01*
X115560214Y-77609890D01*
X115560209Y-77609894D01*
X115409890Y-77760213D01*
X115284951Y-77932179D01*
X115188444Y-78121585D01*
X115122753Y-78323760D01*
X115089500Y-78533713D01*
X115089500Y-78746286D01*
X115122089Y-78952049D01*
X115122754Y-78956243D01*
X115176917Y-79122940D01*
X115188444Y-79158414D01*
X115284951Y-79347820D01*
X115409890Y-79519786D01*
X115560213Y-79670109D01*
X115732179Y-79795048D01*
X115732181Y-79795049D01*
X115732184Y-79795051D01*
X115921588Y-79891557D01*
X116123757Y-79957246D01*
X116333713Y-79990500D01*
X116333714Y-79990500D01*
X116796286Y-79990500D01*
X116796287Y-79990500D01*
X117006243Y-79957246D01*
X117208412Y-79891557D01*
X117397816Y-79795051D01*
X117472900Y-79740500D01*
X117573734Y-79667241D01*
X117574364Y-79668108D01*
X117633419Y-79641641D01*
X117650200Y-79640500D01*
X122776087Y-79640500D01*
X122833107Y-79656394D01*
X122833555Y-79655400D01*
X122840089Y-79658340D01*
X122840233Y-79658381D01*
X122840390Y-79658476D01*
X122840391Y-79658476D01*
X122840394Y-79658478D01*
X123002804Y-79709086D01*
X123073384Y-79715500D01*
X123093565Y-79715500D01*
X123117755Y-79717882D01*
X123143915Y-79723086D01*
X123231456Y-79740500D01*
X123231459Y-79740500D01*
X123428542Y-79740500D01*
X123507052Y-79724882D01*
X123542243Y-79717882D01*
X123566434Y-79715500D01*
X123586613Y-79715500D01*
X123586616Y-79715500D01*
X123657196Y-79709086D01*
X123819606Y-79658478D01*
X123965185Y-79570472D01*
X124015871Y-79519786D01*
X124067319Y-79468339D01*
X124128642Y-79434854D01*
X124198334Y-79439838D01*
X124242681Y-79468339D01*
X124344811Y-79570469D01*
X124344813Y-79570470D01*
X124344815Y-79570472D01*
X124490394Y-79658478D01*
X124652804Y-79709086D01*
X124723384Y-79715500D01*
X124743566Y-79715500D01*
X124767756Y-79717882D01*
X124796006Y-79723502D01*
X124881456Y-79740500D01*
X124881459Y-79740500D01*
X126793543Y-79740500D01*
X126869551Y-79725380D01*
X126907243Y-79717882D01*
X126931434Y-79715500D01*
X126961669Y-79715500D01*
X126961674Y-79715500D01*
X127060185Y-79705436D01*
X127219787Y-79652549D01*
X127362891Y-79564281D01*
X127394819Y-79532353D01*
X127456142Y-79498868D01*
X127525834Y-79503852D01*
X127570181Y-79532353D01*
X127602108Y-79564280D01*
X127602112Y-79564283D01*
X127745204Y-79652544D01*
X127745207Y-79652545D01*
X127745213Y-79652549D01*
X127904815Y-79705436D01*
X128003326Y-79715500D01*
X128033566Y-79715500D01*
X128057756Y-79717882D01*
X128086006Y-79723502D01*
X128171456Y-79740500D01*
X128171459Y-79740500D01*
X128368543Y-79740500D01*
X128444551Y-79725380D01*
X128482243Y-79717882D01*
X128506434Y-79715500D01*
X128536669Y-79715500D01*
X128536674Y-79715500D01*
X128635185Y-79705436D01*
X128794787Y-79652549D01*
X128937891Y-79564281D01*
X129056781Y-79445391D01*
X129145049Y-79302287D01*
X129197936Y-79142685D01*
X129199953Y-79122939D01*
X129208750Y-79088087D01*
X129232051Y-79031835D01*
X129270500Y-78838541D01*
X129270500Y-78486460D01*
X129290185Y-78419421D01*
X129342989Y-78373666D01*
X129412147Y-78363722D01*
X129420256Y-78365165D01*
X129445354Y-78370500D01*
X129445357Y-78370500D01*
X129634644Y-78370500D01*
X129634646Y-78370500D01*
X129819803Y-78331144D01*
X129992730Y-78254151D01*
X129994776Y-78252664D01*
X130006452Y-78244182D01*
X130072258Y-78220702D01*
X130079337Y-78220500D01*
X132203481Y-78220500D01*
X132270520Y-78240185D01*
X132291163Y-78256820D01*
X132334811Y-78300468D01*
X132334811Y-78300469D01*
X132334813Y-78300470D01*
X132334815Y-78300472D01*
X132480394Y-78388478D01*
X132642804Y-78439086D01*
X132713384Y-78445500D01*
X132713387Y-78445500D01*
X133226613Y-78445500D01*
X133226616Y-78445500D01*
X133297196Y-78439086D01*
X133459606Y-78388478D01*
X133605185Y-78300472D01*
X133651509Y-78254148D01*
X133707319Y-78198339D01*
X133768642Y-78164854D01*
X133838334Y-78169838D01*
X133882681Y-78198339D01*
X133984811Y-78300469D01*
X133984813Y-78300470D01*
X133984815Y-78300472D01*
X134130394Y-78388478D01*
X134292804Y-78439086D01*
X134363384Y-78445500D01*
X134383566Y-78445500D01*
X134407756Y-78447882D01*
X134436006Y-78453502D01*
X134521456Y-78470500D01*
X134521459Y-78470500D01*
X136703770Y-78470500D01*
X136770809Y-78490185D01*
X136816564Y-78542989D01*
X136826508Y-78612147D01*
X136797483Y-78675703D01*
X136791451Y-78682181D01*
X134037050Y-81436580D01*
X134037044Y-81436588D01*
X133987812Y-81510268D01*
X133987813Y-81510269D01*
X133951532Y-81564569D01*
X133897921Y-81609375D01*
X133828596Y-81618084D01*
X133809425Y-81613386D01*
X133722709Y-81584651D01*
X133623346Y-81574500D01*
X133076662Y-81574500D01*
X133076644Y-81574501D01*
X132977292Y-81584650D01*
X132977289Y-81584651D01*
X132816305Y-81637996D01*
X132816294Y-81638001D01*
X132671959Y-81727029D01*
X132671955Y-81727032D01*
X132552032Y-81846955D01*
X132552029Y-81846959D01*
X132463001Y-81991294D01*
X132462996Y-81991305D01*
X132409651Y-82152290D01*
X132399500Y-82251647D01*
X132399500Y-82848337D01*
X132399501Y-82848355D01*
X132409650Y-82947707D01*
X132409651Y-82947710D01*
X132462996Y-83108694D01*
X132463001Y-83108705D01*
X132552029Y-83253040D01*
X132552032Y-83253044D01*
X132563181Y-83264193D01*
X132596666Y-83325516D01*
X132599500Y-83351874D01*
X132599500Y-83537513D01*
X132584333Y-83596939D01*
X132581203Y-83602670D01*
X132530908Y-83737517D01*
X132524501Y-83797116D01*
X132524500Y-83797135D01*
X132524500Y-85142870D01*
X132524501Y-85142876D01*
X132530908Y-85202483D01*
X132581203Y-85337330D01*
X132584329Y-85343054D01*
X132599500Y-85402486D01*
X132599500Y-85870500D01*
X132579815Y-85937539D01*
X132527011Y-85983294D01*
X132475500Y-85994500D01*
X114456458Y-85994500D01*
X114440020Y-85997770D01*
X114406156Y-86004506D01*
X114263171Y-86032947D01*
X114263163Y-86032949D01*
X114227463Y-86047737D01*
X114227462Y-86047737D01*
X114081092Y-86108364D01*
X114081079Y-86108371D01*
X113917219Y-86217859D01*
X113848997Y-86286082D01*
X113777861Y-86357218D01*
X111751898Y-88383181D01*
X111690575Y-88416666D01*
X111664217Y-88419500D01*
X111656095Y-88419500D01*
X111639910Y-88418439D01*
X111496055Y-88399500D01*
X111496050Y-88399499D01*
X111496045Y-88399499D01*
X111263955Y-88399499D01*
X111263954Y-88399499D01*
X111120088Y-88418439D01*
X111103903Y-88419500D01*
X109579998Y-88419500D01*
X109579981Y-88419501D01*
X109477203Y-88430000D01*
X109477200Y-88430001D01*
X109310668Y-88485185D01*
X109310663Y-88485187D01*
X109161342Y-88577289D01*
X109037289Y-88701342D01*
X108945187Y-88850663D01*
X108945186Y-88850666D01*
X108890001Y-89017203D01*
X108890001Y-89017204D01*
X108890000Y-89017204D01*
X108879500Y-89119983D01*
X108879500Y-91220001D01*
X108879501Y-91220018D01*
X108890000Y-91322796D01*
X108890001Y-91322799D01*
X108945185Y-91489331D01*
X108945187Y-91489336D01*
X108977802Y-91542213D01*
X109037288Y-91638656D01*
X109161344Y-91762712D01*
X109310666Y-91854814D01*
X109477203Y-91909999D01*
X109579991Y-91920500D01*
X109865501Y-91920499D01*
X109932539Y-91940183D01*
X109978294Y-91992987D01*
X109989500Y-92044499D01*
X109989500Y-99546654D01*
X109969815Y-99613693D01*
X109917011Y-99659448D01*
X109847853Y-99669392D01*
X109820707Y-99662281D01*
X109746306Y-99633458D01*
X109709940Y-99619370D01*
X109491243Y-99578488D01*
X109268757Y-99578488D01*
X109050060Y-99619370D01*
X108946607Y-99659448D01*
X108842601Y-99699740D01*
X108842595Y-99699742D01*
X108653439Y-99816862D01*
X108653437Y-99816864D01*
X108489020Y-99966749D01*
X108354943Y-100144296D01*
X108354938Y-100144304D01*
X108255775Y-100343449D01*
X108255769Y-100343464D01*
X108194885Y-100557450D01*
X108194884Y-100557452D01*
X108174357Y-100778987D01*
X106480000Y-100778987D01*
X106480000Y-74391577D01*
X108814500Y-74391577D01*
X108814500Y-75388422D01*
X108845290Y-75582826D01*
X108906117Y-75770029D01*
X108995476Y-75945405D01*
X109111172Y-76104646D01*
X109250354Y-76243828D01*
X109409595Y-76359524D01*
X109492455Y-76401743D01*
X109584970Y-76448882D01*
X109584972Y-76448882D01*
X109584975Y-76448884D01*
X109607624Y-76456243D01*
X109772173Y-76509709D01*
X109966578Y-76540500D01*
X109966583Y-76540500D01*
X110163422Y-76540500D01*
X110357826Y-76509709D01*
X110545025Y-76448884D01*
X110720405Y-76359524D01*
X110879646Y-76243828D01*
X111018828Y-76104646D01*
X111134524Y-75945405D01*
X111223884Y-75770025D01*
X111284709Y-75582826D01*
X111292297Y-75534916D01*
X111315500Y-75388422D01*
X111315500Y-74391577D01*
X111284709Y-74197173D01*
X111250693Y-74092483D01*
X111223884Y-74009975D01*
X111223882Y-74009972D01*
X111223882Y-74009970D01*
X111145945Y-73857011D01*
X111134524Y-73834595D01*
X111018828Y-73675354D01*
X110879646Y-73536172D01*
X110720405Y-73420476D01*
X110545029Y-73331117D01*
X110357826Y-73270290D01*
X110163422Y-73239500D01*
X110163417Y-73239500D01*
X109966583Y-73239500D01*
X109966578Y-73239500D01*
X109772173Y-73270290D01*
X109584970Y-73331117D01*
X109409594Y-73420476D01*
X109339031Y-73471744D01*
X109250354Y-73536172D01*
X109250352Y-73536174D01*
X109250351Y-73536174D01*
X109111174Y-73675351D01*
X109111174Y-73675352D01*
X109111172Y-73675354D01*
X109061485Y-73743741D01*
X108995476Y-73834594D01*
X108906117Y-74009970D01*
X108845290Y-74197173D01*
X108814500Y-74391577D01*
X106480000Y-74391577D01*
X106480000Y-66124000D01*
X106499685Y-66056961D01*
X106552489Y-66011206D01*
X106604000Y-66000000D01*
X157156000Y-66000000D01*
X157223039Y-66019685D01*
G37*
%TD.AperFunction*%
%TD*%
M02*
