%TF.GenerationSoftware,KiCad,Pcbnew,8.0.3*%
%TF.CreationDate,2024-10-02T02:13:24+09:00*%
%TF.ProjectId,AltairMDmini_V1,416c7461-6972-44d4-946d-696e695f5631,rev?*%
%TF.SameCoordinates,Original*%
%TF.FileFunction,Paste,Top*%
%TF.FilePolarity,Positive*%
%FSLAX46Y46*%
G04 Gerber Fmt 4.6, Leading zero omitted, Abs format (unit mm)*
G04 Created by KiCad (PCBNEW 8.0.3) date 2024-10-02 02:13:24*
%MOMM*%
%LPD*%
G01*
G04 APERTURE LIST*
G04 Aperture macros list*
%AMRoundRect*
0 Rectangle with rounded corners*
0 $1 Rounding radius*
0 $2 $3 $4 $5 $6 $7 $8 $9 X,Y pos of 4 corners*
0 Add a 4 corners polygon primitive as box body*
4,1,4,$2,$3,$4,$5,$6,$7,$8,$9,$2,$3,0*
0 Add four circle primitives for the rounded corners*
1,1,$1+$1,$2,$3*
1,1,$1+$1,$4,$5*
1,1,$1+$1,$6,$7*
1,1,$1+$1,$8,$9*
0 Add four rect primitives between the rounded corners*
20,1,$1+$1,$2,$3,$4,$5,0*
20,1,$1+$1,$4,$5,$6,$7,0*
20,1,$1+$1,$6,$7,$8,$9,0*
20,1,$1+$1,$8,$9,$2,$3,0*%
G04 Aperture macros list end*
%ADD10RoundRect,0.200000X-0.275000X0.200000X-0.275000X-0.200000X0.275000X-0.200000X0.275000X0.200000X0*%
%ADD11RoundRect,0.200000X-0.200000X-0.275000X0.200000X-0.275000X0.200000X0.275000X-0.200000X0.275000X0*%
%ADD12R,0.650000X1.250000*%
%ADD13R,1.250000X0.650000*%
%ADD14R,1.400000X2.000000*%
%ADD15RoundRect,0.218750X0.256250X-0.218750X0.256250X0.218750X-0.256250X0.218750X-0.256250X-0.218750X0*%
%ADD16RoundRect,0.218750X0.218750X0.256250X-0.218750X0.256250X-0.218750X-0.256250X0.218750X-0.256250X0*%
%ADD17RoundRect,0.225000X-0.250000X0.225000X-0.250000X-0.225000X0.250000X-0.225000X0.250000X0.225000X0*%
%ADD18RoundRect,0.225000X0.225000X0.250000X-0.225000X0.250000X-0.225000X-0.250000X0.225000X-0.250000X0*%
%ADD19RoundRect,0.250000X-1.750000X-1.000000X1.750000X-1.000000X1.750000X1.000000X-1.750000X1.000000X0*%
G04 APERTURE END LIST*
D10*
%TO.C,R13*%
X144145000Y-100585000D03*
X144145000Y-102235000D03*
%TD*%
%TO.C,R12*%
X142240000Y-102490000D03*
X142240000Y-104140000D03*
%TD*%
%TO.C,R11*%
X144145000Y-111380000D03*
X144145000Y-113030000D03*
%TD*%
%TO.C,R10*%
X142240000Y-113285000D03*
X142240000Y-114935000D03*
%TD*%
%TO.C,R9*%
X123825000Y-102490000D03*
X123825000Y-104140000D03*
%TD*%
%TO.C,R8*%
X123825000Y-112650000D03*
X123825000Y-114300000D03*
%TD*%
D11*
%TO.C,R7*%
X144590000Y-92075000D03*
X146240000Y-92075000D03*
%TD*%
%TO.C,R6*%
X133160000Y-92075000D03*
X134810000Y-92075000D03*
%TD*%
%TO.C,R5*%
X132970000Y-77470000D03*
X134620000Y-77470000D03*
%TD*%
%TO.C,R4*%
X132970000Y-73660000D03*
X134620000Y-73660000D03*
%TD*%
%TO.C,R3*%
X123352618Y-73660000D03*
X125002618Y-73660000D03*
%TD*%
%TO.C,R2*%
X123330000Y-76200000D03*
X124980000Y-76200000D03*
%TD*%
%TO.C,R1*%
X123330000Y-78740000D03*
X124980000Y-78740000D03*
%TD*%
D12*
%TO.C,IC3*%
X147320000Y-84470000D03*
X146050000Y-84470000D03*
X144780000Y-84470000D03*
X143510000Y-84470000D03*
X143510000Y-90170000D03*
X144780000Y-90170000D03*
X146050000Y-90170000D03*
X147320000Y-90170000D03*
%TD*%
%TO.C,IC2*%
X135890000Y-84470000D03*
X134620000Y-84470000D03*
X133350000Y-84470000D03*
X132080000Y-84470000D03*
X132080000Y-90170000D03*
X133350000Y-90170000D03*
X134620000Y-90170000D03*
X135890000Y-90170000D03*
%TD*%
D13*
%TO.C,IC1*%
X137160000Y-73660000D03*
X137160000Y-74930000D03*
X137160000Y-76200000D03*
X137160000Y-77470000D03*
X142860000Y-77470000D03*
X142860000Y-76200000D03*
X142860000Y-74930000D03*
X142860000Y-73660000D03*
%TD*%
D14*
%TO.C,D9*%
X130812374Y-99060000D03*
X135212374Y-99060000D03*
%TD*%
%TO.C,D8*%
X130810000Y-104140000D03*
X135210000Y-104140000D03*
%TD*%
%TO.C,D7*%
X130810000Y-109220000D03*
X135210000Y-109220000D03*
%TD*%
%TO.C,D6*%
X130855000Y-114300000D03*
X135255000Y-114300000D03*
%TD*%
D15*
%TO.C,D5*%
X149860000Y-85877500D03*
X149860000Y-84302500D03*
%TD*%
%TO.C,D4*%
X138430000Y-85877500D03*
X138430000Y-84302500D03*
%TD*%
D16*
%TO.C,D3*%
X128270000Y-73660000D03*
X126695000Y-73660000D03*
%TD*%
%TO.C,D2*%
X128270000Y-76200000D03*
X126695000Y-76200000D03*
%TD*%
%TO.C,D1*%
X128270000Y-78740000D03*
X126695000Y-78740000D03*
%TD*%
D17*
%TO.C,C5*%
X147320000Y-93980000D03*
X147320000Y-95530000D03*
%TD*%
%TO.C,C4*%
X135890000Y-93980000D03*
X135890000Y-95530000D03*
%TD*%
D18*
%TO.C,C3*%
X145060000Y-82550000D03*
X143510000Y-82550000D03*
%TD*%
%TO.C,C2*%
X133350000Y-82550000D03*
X131800000Y-82550000D03*
%TD*%
D19*
%TO.C,C1*%
X111380000Y-90170000D03*
X119380000Y-90170000D03*
%TD*%
M02*
