%TF.GenerationSoftware,KiCad,Pcbnew,8.0.3*%
%TF.CreationDate,2024-10-02T02:13:24+09:00*%
%TF.ProjectId,AltairMDmini_V1,416c7461-6972-44d4-946d-696e695f5631,rev?*%
%TF.SameCoordinates,Original*%
%TF.FileFunction,Copper,L2,Bot*%
%TF.FilePolarity,Positive*%
%FSLAX46Y46*%
G04 Gerber Fmt 4.6, Leading zero omitted, Abs format (unit mm)*
G04 Created by KiCad (PCBNEW 8.0.3) date 2024-10-02 02:13:24*
%MOMM*%
%LPD*%
G01*
G04 APERTURE LIST*
G04 Aperture macros list*
%AMRoundRect*
0 Rectangle with rounded corners*
0 $1 Rounding radius*
0 $2 $3 $4 $5 $6 $7 $8 $9 X,Y pos of 4 corners*
0 Add a 4 corners polygon primitive as box body*
4,1,4,$2,$3,$4,$5,$6,$7,$8,$9,$2,$3,0*
0 Add four circle primitives for the rounded corners*
1,1,$1+$1,$2,$3*
1,1,$1+$1,$4,$5*
1,1,$1+$1,$6,$7*
1,1,$1+$1,$8,$9*
0 Add four rect primitives between the rounded corners*
20,1,$1+$1,$2,$3,$4,$5,0*
20,1,$1+$1,$4,$5,$6,$7,0*
20,1,$1+$1,$6,$7,$8,$9,0*
20,1,$1+$1,$8,$9,$2,$3,0*%
G04 Aperture macros list end*
%TA.AperFunction,ComponentPad*%
%ADD10R,1.740000X1.740000*%
%TD*%
%TA.AperFunction,ComponentPad*%
%ADD11C,1.740000*%
%TD*%
%TA.AperFunction,ComponentPad*%
%ADD12C,1.400000*%
%TD*%
%TA.AperFunction,ComponentPad*%
%ADD13R,3.500000X3.500000*%
%TD*%
%TA.AperFunction,ComponentPad*%
%ADD14C,3.500000*%
%TD*%
%TA.AperFunction,ComponentPad*%
%ADD15RoundRect,0.250000X-0.725000X0.600000X-0.725000X-0.600000X0.725000X-0.600000X0.725000X0.600000X0*%
%TD*%
%TA.AperFunction,ComponentPad*%
%ADD16O,1.950000X1.700000*%
%TD*%
%TA.AperFunction,ViaPad*%
%ADD17C,0.800000*%
%TD*%
%TA.AperFunction,Conductor*%
%ADD18C,0.500000*%
%TD*%
%TA.AperFunction,Conductor*%
%ADD19C,1.500000*%
%TD*%
G04 APERTURE END LIST*
D10*
%TO.P,Q4,1,G*%
%TO.N,Net-(Q4-G)*%
X139700000Y-104140000D03*
D11*
%TO.P,Q4,2,D*%
%TO.N,Net-(D8-A)*%
X139700000Y-101840000D03*
%TO.P,Q4,3,S*%
%TO.N,GND2*%
X139700000Y-99540000D03*
%TD*%
D10*
%TO.P,Q3,1,G*%
%TO.N,Net-(Q3-G)*%
X127000000Y-104140000D03*
D11*
%TO.P,Q3,2,D*%
%TO.N,+12V*%
X127000000Y-101840000D03*
%TO.P,Q3,3,S*%
%TO.N,Net-(D8-A)*%
X127000000Y-99540000D03*
%TD*%
D10*
%TO.P,Q2,1,G*%
%TO.N,Net-(Q2-G)*%
X139700000Y-114300000D03*
D11*
%TO.P,Q2,2,D*%
%TO.N,Net-(D6-A)*%
X139700000Y-112000000D03*
%TO.P,Q2,3,S*%
%TO.N,GND2*%
X139700000Y-109700000D03*
%TD*%
D10*
%TO.P,Q1,1,G*%
%TO.N,Net-(Q1-G)*%
X127000000Y-114300000D03*
D11*
%TO.P,Q1,2,D*%
%TO.N,+12V*%
X127000000Y-112000000D03*
%TO.P,Q1,3,S*%
%TO.N,Net-(D6-A)*%
X127000000Y-109700000D03*
%TD*%
D12*
%TO.P,J3,*%
%TO.N,*%
X153670000Y-100760000D03*
X153670000Y-111760000D03*
D13*
%TO.P,J3,1,Pin_1*%
%TO.N,Net-(D8-A)*%
X148670000Y-103760000D03*
D14*
%TO.P,J3,2,Pin_2*%
%TO.N,Net-(D6-A)*%
X148670000Y-108760000D03*
%TD*%
D12*
%TO.P,J2,*%
%TO.N,*%
X109380000Y-111778988D03*
X109380000Y-100778988D03*
D13*
%TO.P,J2,1,Pin_1*%
%TO.N,GND2*%
X119380000Y-103778988D03*
D14*
%TO.P,J2,2,Pin_2*%
%TO.N,+12V*%
X119380000Y-108778988D03*
%TD*%
D15*
%TO.P,J1,1,Pin_1*%
%TO.N,GND*%
X116565000Y-71140000D03*
D16*
%TO.P,J1,2,Pin_2*%
%TO.N,SDs*%
X116565000Y-73640000D03*
%TO.P,J1,3,Pin_3*%
%TO.N,Ps2*%
X116565000Y-76140000D03*
%TO.P,J1,4,Pin_4*%
%TO.N,Ps1*%
X116565000Y-78640000D03*
%TD*%
D17*
%TO.N,Net-(IC3-LO)*%
X144145000Y-104140000D03*
X144780000Y-96520000D03*
%TO.N,GND2*%
X129540000Y-93980000D03*
X119380000Y-88900000D03*
X121920000Y-91440000D03*
X119380000Y-99060000D03*
X119380000Y-93980000D03*
X116840000Y-91440000D03*
X114300000Y-93980000D03*
X116840000Y-96520000D03*
X116840000Y-101600000D03*
X114300000Y-99060000D03*
X114300000Y-109220000D03*
X139700000Y-93980000D03*
X142240000Y-91440000D03*
X137160000Y-91440000D03*
X149860000Y-99060000D03*
X149860000Y-96520000D03*
X154940000Y-78740000D03*
X152400000Y-81280000D03*
X154940000Y-83820000D03*
X152400000Y-86360000D03*
X152400000Y-91440000D03*
X154940000Y-88900000D03*
X154940000Y-93980000D03*
X154940000Y-99060000D03*
X154940000Y-104140000D03*
X154940000Y-109220000D03*
X144780000Y-114300000D03*
X149860000Y-114300000D03*
X154940000Y-114300000D03*
X119380000Y-114300000D03*
X109220000Y-114300000D03*
X114300000Y-114300000D03*
X116840000Y-111760000D03*
X111760000Y-111760000D03*
X111760000Y-106680000D03*
X109220000Y-109220000D03*
X109220000Y-104140000D03*
X139700000Y-74295000D03*
X140970000Y-77470000D03*
X141605000Y-79375000D03*
X139065000Y-79375000D03*
%TO.N,Net-(IC2-LO)*%
X149225000Y-93345000D03*
X130175000Y-90170000D03*
%TO.N,Net-(IC3-HO)*%
X146240000Y-92075000D03*
%TO.N,Net-(IC2-HO)*%
X134810000Y-92075000D03*
%TO.N,Net-(D4-K)*%
X139970818Y-90009615D03*
X139997295Y-85878865D03*
%TO.N,Net-(IC2-HO)*%
X122555000Y-97155000D03*
%TO.N,Net-(IC3-HO)*%
X123825000Y-97155000D03*
%TO.N,Ps1*%
X131445000Y-73660000D03*
%TO.N,Ps2*%
X129540000Y-77470000D03*
%TD*%
D18*
%TO.N,Net-(IC3-LO)*%
X138380000Y-105460000D02*
X142825000Y-105460000D01*
X137160000Y-100213238D02*
X137160000Y-104240000D01*
X139518238Y-97855000D02*
X137160000Y-100213238D01*
X143445000Y-97855000D02*
X139518238Y-97855000D01*
X137160000Y-104240000D02*
X138380000Y-105460000D01*
X144780000Y-96520000D02*
X143445000Y-97855000D01*
X142825000Y-105460000D02*
X144145000Y-104140000D01*
%TO.N,Net-(IC2-LO)*%
X130175000Y-83820000D02*
X130175000Y-90170000D01*
X132715000Y-81280000D02*
X130175000Y-83820000D01*
X148590000Y-81280000D02*
X132715000Y-81280000D01*
X148590000Y-92710000D02*
X148590000Y-81280000D01*
X149225000Y-93345000D02*
X148590000Y-92710000D01*
%TO.N,Net-(IC3-HO)*%
X141160000Y-97155000D02*
X146240000Y-92075000D01*
X123825000Y-97155000D02*
X141160000Y-97155000D01*
%TO.N,Net-(IC2-HO)*%
X127635000Y-92075000D02*
X134810000Y-92075000D01*
X122555000Y-97155000D02*
X127635000Y-92075000D01*
%TO.N,Net-(D4-K)*%
X139997295Y-85878865D02*
X139997295Y-89983138D01*
X139997295Y-89983138D02*
X139970818Y-90009615D01*
D19*
%TO.N,Net-(D6-A)*%
X139700000Y-112000000D02*
X145430000Y-112000000D01*
X145430000Y-112000000D02*
X148670000Y-108760000D01*
%TO.N,Net-(D8-A)*%
X146750000Y-101840000D02*
X148670000Y-103760000D01*
X139700000Y-101840000D02*
X146750000Y-101840000D01*
%TO.N,+12V*%
X125730000Y-112000000D02*
X125730000Y-111992500D01*
X124227500Y-110490000D02*
X124227500Y-111767500D01*
X124227500Y-103931488D02*
X124227500Y-110490000D01*
X125730000Y-112000000D02*
X127000000Y-112000000D01*
X125730000Y-111992500D02*
X124227500Y-110490000D01*
X124460000Y-112000000D02*
X125730000Y-112000000D01*
X124227500Y-111767500D02*
X124460000Y-112000000D01*
X123190000Y-112000000D02*
X124460000Y-112000000D01*
X124227500Y-103931488D02*
X122080000Y-106078988D01*
X122601012Y-112000000D02*
X123190000Y-112000000D01*
X122957500Y-111767500D02*
X123190000Y-112000000D01*
X122957500Y-104542500D02*
X122957500Y-111767500D01*
X125660000Y-101840000D02*
X122957500Y-104542500D01*
X122080000Y-111478988D02*
X122601012Y-112000000D01*
X122080000Y-106078988D02*
X122080000Y-111478988D01*
X121064494Y-107094494D02*
X121064494Y-110463482D01*
X119380000Y-108778988D02*
X121505506Y-110904494D01*
X121064494Y-107094494D02*
X119380000Y-108778988D01*
X121505506Y-110904494D02*
X122601012Y-112000000D01*
X122080000Y-106078988D02*
X121064494Y-107094494D01*
X121064494Y-110463482D02*
X121505506Y-110904494D01*
X127000000Y-101840000D02*
X125660000Y-101840000D01*
D18*
%TO.N,Ps1*%
X131445000Y-77470000D02*
X131445000Y-73660000D01*
X130275000Y-78640000D02*
X131445000Y-77470000D01*
X116565000Y-78640000D02*
X130275000Y-78640000D01*
%TO.N,Ps2*%
X128210000Y-76140000D02*
X116565000Y-76140000D01*
X129540000Y-77470000D02*
X128210000Y-76140000D01*
%TD*%
%TA.AperFunction,Conductor*%
%TO.N,GND2*%
G36*
X157223039Y-66019685D02*
G01*
X157268794Y-66072489D01*
X157280000Y-66124000D01*
X157280000Y-116676000D01*
X157260315Y-116743039D01*
X157207511Y-116788794D01*
X157156000Y-116800000D01*
X106604000Y-116800000D01*
X106536961Y-116780315D01*
X106491206Y-116727511D01*
X106480000Y-116676000D01*
X106480000Y-111778987D01*
X108174357Y-111778987D01*
X108174357Y-111778988D01*
X108194884Y-112000523D01*
X108194885Y-112000525D01*
X108255769Y-112214511D01*
X108255775Y-112214526D01*
X108354938Y-112413671D01*
X108354943Y-112413679D01*
X108489020Y-112591226D01*
X108653437Y-112741111D01*
X108653439Y-112741113D01*
X108842595Y-112858233D01*
X108842596Y-112858233D01*
X108842599Y-112858235D01*
X109050060Y-112938606D01*
X109268757Y-112979488D01*
X109268759Y-112979488D01*
X109491241Y-112979488D01*
X109491243Y-112979488D01*
X109709940Y-112938606D01*
X109917401Y-112858235D01*
X110106562Y-112741112D01*
X110270981Y-112591224D01*
X110405058Y-112413677D01*
X110504229Y-112214516D01*
X110565115Y-112000524D01*
X110585643Y-111778988D01*
X110583883Y-111759999D01*
X110565115Y-111557452D01*
X110565114Y-111557450D01*
X110559711Y-111538462D01*
X110504229Y-111343460D01*
X110504224Y-111343449D01*
X110405061Y-111144304D01*
X110405056Y-111144296D01*
X110270979Y-110966749D01*
X110106562Y-110816864D01*
X110106560Y-110816862D01*
X109917404Y-110699742D01*
X109917398Y-110699740D01*
X109709940Y-110619370D01*
X109491243Y-110578488D01*
X109268757Y-110578488D01*
X109050060Y-110619370D01*
X109023912Y-110629500D01*
X108842601Y-110699740D01*
X108842595Y-110699742D01*
X108653439Y-110816862D01*
X108653437Y-110816864D01*
X108489020Y-110966749D01*
X108354943Y-111144296D01*
X108354938Y-111144304D01*
X108255775Y-111343449D01*
X108255769Y-111343464D01*
X108194885Y-111557450D01*
X108194884Y-111557452D01*
X108174357Y-111778987D01*
X106480000Y-111778987D01*
X106480000Y-108778980D01*
X117124671Y-108778980D01*
X117124671Y-108778995D01*
X117143964Y-109073351D01*
X117143965Y-109073361D01*
X117143966Y-109073368D01*
X117187180Y-109290624D01*
X117201518Y-109362704D01*
X117201521Y-109362718D01*
X117296349Y-109642068D01*
X117426825Y-109906648D01*
X117426829Y-109906655D01*
X117590725Y-110151943D01*
X117785241Y-110373746D01*
X118007044Y-110568262D01*
X118252332Y-110732158D01*
X118252339Y-110732162D01*
X118270111Y-110740926D01*
X118516923Y-110862640D01*
X118796278Y-110957469D01*
X119085620Y-111015022D01*
X119090304Y-111015329D01*
X119379993Y-111034317D01*
X119380000Y-111034317D01*
X119380007Y-111034317D01*
X119615675Y-111018869D01*
X119674380Y-111015022D01*
X119753823Y-110999219D01*
X119823411Y-111005446D01*
X119865693Y-111033155D01*
X120110666Y-111278128D01*
X120551677Y-111719139D01*
X120551678Y-111719140D01*
X121126172Y-112293634D01*
X121786366Y-112953828D01*
X121945607Y-113069524D01*
X122120986Y-113158884D01*
X122285103Y-113212209D01*
X122308185Y-113219709D01*
X122394589Y-113233393D01*
X122502590Y-113250500D01*
X122502595Y-113250500D01*
X122699428Y-113250500D01*
X123091583Y-113250500D01*
X123091584Y-113250500D01*
X123288417Y-113250500D01*
X124361583Y-113250500D01*
X124361584Y-113250500D01*
X124558417Y-113250500D01*
X125505731Y-113250500D01*
X125572770Y-113270185D01*
X125618525Y-113322989D01*
X125629110Y-113378806D01*
X125629500Y-113378806D01*
X125629500Y-113380863D01*
X125629553Y-113381143D01*
X125629500Y-113382130D01*
X125629500Y-115217870D01*
X125629501Y-115217876D01*
X125635908Y-115277483D01*
X125686202Y-115412328D01*
X125686206Y-115412335D01*
X125772452Y-115527544D01*
X125772455Y-115527547D01*
X125887664Y-115613793D01*
X125887671Y-115613797D01*
X126022517Y-115664091D01*
X126022516Y-115664091D01*
X126029444Y-115664835D01*
X126082127Y-115670500D01*
X127917872Y-115670499D01*
X127977483Y-115664091D01*
X128112331Y-115613796D01*
X128227546Y-115527546D01*
X128313796Y-115412331D01*
X128364091Y-115277483D01*
X128370500Y-115217873D01*
X128370499Y-113382128D01*
X128364091Y-113322517D01*
X128344572Y-113270185D01*
X128313797Y-113187671D01*
X128313793Y-113187664D01*
X128227547Y-113072455D01*
X128227544Y-113072452D01*
X128125144Y-112995795D01*
X128083273Y-112939861D01*
X128078289Y-112870170D01*
X128095644Y-112828713D01*
X128209450Y-112654521D01*
X128300685Y-112446526D01*
X128356441Y-112226350D01*
X128364777Y-112125750D01*
X128375197Y-112000005D01*
X128375197Y-111999994D01*
X138324803Y-111999994D01*
X138324803Y-112000005D01*
X138343558Y-112226346D01*
X138399314Y-112446524D01*
X138490549Y-112654520D01*
X138604352Y-112828709D01*
X138624539Y-112895598D01*
X138605359Y-112962784D01*
X138574855Y-112995796D01*
X138472452Y-113072455D01*
X138386206Y-113187664D01*
X138386202Y-113187671D01*
X138335908Y-113322517D01*
X138329857Y-113378806D01*
X138329501Y-113382123D01*
X138329500Y-113382135D01*
X138329500Y-115217870D01*
X138329501Y-115217876D01*
X138335908Y-115277483D01*
X138386202Y-115412328D01*
X138386206Y-115412335D01*
X138472452Y-115527544D01*
X138472455Y-115527547D01*
X138587664Y-115613793D01*
X138587671Y-115613797D01*
X138722517Y-115664091D01*
X138722516Y-115664091D01*
X138729444Y-115664835D01*
X138782127Y-115670500D01*
X140617872Y-115670499D01*
X140677483Y-115664091D01*
X140812331Y-115613796D01*
X140927546Y-115527546D01*
X141013796Y-115412331D01*
X141064091Y-115277483D01*
X141070500Y-115217873D01*
X141070499Y-113382128D01*
X141070498Y-113382127D01*
X141070446Y-113381141D01*
X141070499Y-113380916D01*
X141070499Y-113378807D01*
X141070997Y-113378807D01*
X141086512Y-113313144D01*
X141136790Y-113264626D01*
X141194268Y-113250500D01*
X145528422Y-113250500D01*
X145722826Y-113219709D01*
X145910026Y-113158884D01*
X146085405Y-113069524D01*
X146244646Y-112953828D01*
X147438474Y-111759999D01*
X152464357Y-111759999D01*
X152464357Y-111760000D01*
X152484884Y-111981535D01*
X152484885Y-111981537D01*
X152545769Y-112195523D01*
X152545775Y-112195538D01*
X152644938Y-112394683D01*
X152644943Y-112394691D01*
X152779020Y-112572238D01*
X152943437Y-112722123D01*
X152943439Y-112722125D01*
X153132595Y-112839245D01*
X153132596Y-112839245D01*
X153132599Y-112839247D01*
X153340060Y-112919618D01*
X153558757Y-112960500D01*
X153558759Y-112960500D01*
X153781241Y-112960500D01*
X153781243Y-112960500D01*
X153999940Y-112919618D01*
X154207401Y-112839247D01*
X154396562Y-112722124D01*
X154560981Y-112572236D01*
X154695058Y-112394689D01*
X154794229Y-112195528D01*
X154855115Y-111981536D01*
X154875643Y-111760000D01*
X154855115Y-111538464D01*
X154794229Y-111324472D01*
X154794224Y-111324461D01*
X154695061Y-111125316D01*
X154695056Y-111125308D01*
X154560979Y-110947761D01*
X154396562Y-110797876D01*
X154396560Y-110797874D01*
X154207404Y-110680754D01*
X154207398Y-110680752D01*
X153999940Y-110600382D01*
X153781243Y-110559500D01*
X153558757Y-110559500D01*
X153340060Y-110600382D01*
X153264898Y-110629500D01*
X153132601Y-110680752D01*
X153132595Y-110680754D01*
X152943439Y-110797874D01*
X152943437Y-110797876D01*
X152779020Y-110947761D01*
X152644943Y-111125308D01*
X152644938Y-111125316D01*
X152545775Y-111324461D01*
X152545769Y-111324476D01*
X152484885Y-111538462D01*
X152484884Y-111538464D01*
X152464357Y-111759999D01*
X147438474Y-111759999D01*
X148184307Y-111014165D01*
X148245628Y-110980682D01*
X148296174Y-110980231D01*
X148375620Y-110996034D01*
X148403888Y-110997886D01*
X148669993Y-111015329D01*
X148670000Y-111015329D01*
X148670007Y-111015329D01*
X148915787Y-110999219D01*
X148964380Y-110996034D01*
X149253722Y-110938481D01*
X149533077Y-110843652D01*
X149797665Y-110713172D01*
X150042957Y-110549273D01*
X150264758Y-110354758D01*
X150459273Y-110132957D01*
X150623172Y-109887665D01*
X150753652Y-109623077D01*
X150848481Y-109343722D01*
X150906034Y-109054380D01*
X150924084Y-108778995D01*
X150925329Y-108760007D01*
X150925329Y-108759992D01*
X150906035Y-108465636D01*
X150906034Y-108465620D01*
X150848481Y-108176278D01*
X150753652Y-107896923D01*
X150623172Y-107632336D01*
X150459273Y-107387043D01*
X150416655Y-107338447D01*
X150264758Y-107165241D01*
X150042955Y-106970725D01*
X149797667Y-106806829D01*
X149797660Y-106806825D01*
X149533080Y-106676349D01*
X149253730Y-106581521D01*
X149253724Y-106581519D01*
X149253722Y-106581519D01*
X148964380Y-106523966D01*
X148964373Y-106523965D01*
X148964363Y-106523964D01*
X148670007Y-106504671D01*
X148669993Y-106504671D01*
X148375636Y-106523964D01*
X148375624Y-106523965D01*
X148375620Y-106523966D01*
X148375612Y-106523967D01*
X148375609Y-106523968D01*
X148086283Y-106581518D01*
X148086269Y-106581521D01*
X147806919Y-106676349D01*
X147542334Y-106806828D01*
X147297041Y-106970728D01*
X147075241Y-107165241D01*
X146880728Y-107387041D01*
X146716828Y-107632334D01*
X146586349Y-107896919D01*
X146491521Y-108176269D01*
X146491518Y-108176283D01*
X146433968Y-108465609D01*
X146433964Y-108465636D01*
X146414671Y-108759992D01*
X146414671Y-108760007D01*
X146433964Y-109054363D01*
X146433966Y-109054379D01*
X146449768Y-109133822D01*
X146443539Y-109203413D01*
X146415831Y-109245693D01*
X144948345Y-110713181D01*
X144887022Y-110746666D01*
X144860664Y-110749500D01*
X140298630Y-110749500D01*
X140257731Y-110740926D01*
X140257261Y-110742296D01*
X140037593Y-110666884D01*
X139888239Y-110641961D01*
X139813563Y-110629500D01*
X139586437Y-110629500D01*
X139530430Y-110638846D01*
X139362406Y-110666884D01*
X139147593Y-110740629D01*
X139147588Y-110740631D01*
X138947836Y-110848732D01*
X138947830Y-110848736D01*
X138768610Y-110988229D01*
X138768607Y-110988232D01*
X138768604Y-110988234D01*
X138768604Y-110988235D01*
X138761425Y-110996034D01*
X138614776Y-111155337D01*
X138490548Y-111345482D01*
X138399314Y-111553475D01*
X138343558Y-111773653D01*
X138324803Y-111999994D01*
X128375197Y-111999994D01*
X128356441Y-111773653D01*
X128356441Y-111773650D01*
X128300685Y-111553474D01*
X128209450Y-111345479D01*
X128085224Y-111155337D01*
X127931396Y-110988235D01*
X127931391Y-110988231D01*
X127931389Y-110988229D01*
X127879514Y-110947853D01*
X127838701Y-110891143D01*
X127835026Y-110821370D01*
X127869658Y-110760687D01*
X127879514Y-110752147D01*
X127912307Y-110726621D01*
X127931396Y-110711765D01*
X128085224Y-110544663D01*
X128209450Y-110354521D01*
X128300685Y-110146526D01*
X128356441Y-109926350D01*
X128375197Y-109700000D01*
X128370396Y-109642065D01*
X128356441Y-109473653D01*
X128356441Y-109473650D01*
X128300685Y-109253474D01*
X128209450Y-109045479D01*
X128085224Y-108855337D01*
X127931396Y-108688235D01*
X127931391Y-108688231D01*
X127931389Y-108688229D01*
X127752169Y-108548736D01*
X127752163Y-108548732D01*
X127552411Y-108440631D01*
X127552406Y-108440629D01*
X127337593Y-108366884D01*
X127188239Y-108341961D01*
X127113563Y-108329500D01*
X126886437Y-108329500D01*
X126830430Y-108338846D01*
X126662406Y-108366884D01*
X126447593Y-108440629D01*
X126447588Y-108440631D01*
X126247836Y-108548732D01*
X126247830Y-108548736D01*
X126068610Y-108688229D01*
X126068607Y-108688232D01*
X126068604Y-108688234D01*
X126068604Y-108688235D01*
X125985060Y-108778988D01*
X125914776Y-108855337D01*
X125790548Y-109045482D01*
X125715556Y-109216448D01*
X125670600Y-109269934D01*
X125603864Y-109290624D01*
X125536536Y-109271949D01*
X125489993Y-109219839D01*
X125478000Y-109166638D01*
X125478000Y-105346763D01*
X125497685Y-105279724D01*
X125550489Y-105233969D01*
X125619647Y-105224025D01*
X125683203Y-105253050D01*
X125701264Y-105272449D01*
X125772454Y-105367546D01*
X125818643Y-105402123D01*
X125887664Y-105453793D01*
X125887671Y-105453797D01*
X126022517Y-105504091D01*
X126022516Y-105504091D01*
X126029444Y-105504835D01*
X126082127Y-105510500D01*
X127917872Y-105510499D01*
X127977483Y-105504091D01*
X128112331Y-105453796D01*
X128227546Y-105367546D01*
X128313796Y-105252331D01*
X128364091Y-105117483D01*
X128370500Y-105057873D01*
X128370499Y-103222128D01*
X128364091Y-103162517D01*
X128344572Y-103110185D01*
X128313797Y-103027671D01*
X128313793Y-103027664D01*
X128227547Y-102912455D01*
X128227544Y-102912452D01*
X128125144Y-102835795D01*
X128083273Y-102779861D01*
X128078289Y-102710170D01*
X128095644Y-102668713D01*
X128209450Y-102494521D01*
X128300685Y-102286526D01*
X128356441Y-102066350D01*
X128373686Y-101858235D01*
X128375197Y-101840005D01*
X128375197Y-101839994D01*
X128356441Y-101613653D01*
X128356441Y-101613650D01*
X128300685Y-101393474D01*
X128209450Y-101185479D01*
X128085224Y-100995337D01*
X127931396Y-100828235D01*
X127931391Y-100828231D01*
X127931389Y-100828229D01*
X127879514Y-100787853D01*
X127838701Y-100731143D01*
X127835026Y-100661370D01*
X127869658Y-100600687D01*
X127879514Y-100592147D01*
X127924092Y-100557450D01*
X127931396Y-100551765D01*
X128085224Y-100384663D01*
X128209450Y-100194521D01*
X128300685Y-99986526D01*
X128356441Y-99766350D01*
X128372008Y-99578488D01*
X128375197Y-99540005D01*
X128375197Y-99539994D01*
X128356441Y-99313653D01*
X128356441Y-99313650D01*
X128300685Y-99093474D01*
X128209450Y-98885479D01*
X128085224Y-98695337D01*
X127931396Y-98528235D01*
X127931391Y-98528231D01*
X127931389Y-98528229D01*
X127752169Y-98388736D01*
X127752163Y-98388732D01*
X127552411Y-98280631D01*
X127552406Y-98280629D01*
X127337593Y-98206884D01*
X127188239Y-98181961D01*
X127113563Y-98169500D01*
X126886437Y-98169500D01*
X126830430Y-98178846D01*
X126662406Y-98206884D01*
X126447593Y-98280629D01*
X126447588Y-98280631D01*
X126247836Y-98388732D01*
X126247830Y-98388736D01*
X126068610Y-98528229D01*
X126068607Y-98528232D01*
X126068604Y-98528234D01*
X126068604Y-98528235D01*
X126024028Y-98576658D01*
X125914776Y-98695337D01*
X125790548Y-98885482D01*
X125699314Y-99093475D01*
X125643558Y-99313653D01*
X125624803Y-99539994D01*
X125624803Y-99540005D01*
X125643558Y-99766346D01*
X125699314Y-99986524D01*
X125768520Y-100144299D01*
X125790550Y-100194521D01*
X125914775Y-100384662D01*
X125914780Y-100384669D01*
X125917924Y-100388708D01*
X125916124Y-100390108D01*
X125942806Y-100444192D01*
X125934934Y-100513617D01*
X125890778Y-100567765D01*
X125824356Y-100589445D01*
X125820650Y-100589500D01*
X125561578Y-100589500D01*
X125367173Y-100620290D01*
X125179969Y-100681117D01*
X125004594Y-100770476D01*
X124925105Y-100828229D01*
X124845354Y-100886172D01*
X124845352Y-100886174D01*
X124845351Y-100886174D01*
X122003674Y-103727851D01*
X122003674Y-103727852D01*
X122003672Y-103727854D01*
X121971805Y-103771715D01*
X121887976Y-103887094D01*
X121798617Y-104062471D01*
X121749409Y-104213917D01*
X121749409Y-104213918D01*
X121737790Y-104249675D01*
X121707000Y-104444077D01*
X121707000Y-104632152D01*
X121687315Y-104699191D01*
X121670681Y-104719833D01*
X120249848Y-106140666D01*
X119865693Y-106524819D01*
X119804370Y-106558304D01*
X119753822Y-106558755D01*
X119674380Y-106542954D01*
X119674377Y-106542953D01*
X119674363Y-106542952D01*
X119380007Y-106523659D01*
X119379993Y-106523659D01*
X119085636Y-106542952D01*
X119085624Y-106542953D01*
X119085620Y-106542954D01*
X119085612Y-106542955D01*
X119085609Y-106542956D01*
X118796283Y-106600506D01*
X118796269Y-106600509D01*
X118516919Y-106695337D01*
X118252334Y-106825816D01*
X118007041Y-106989716D01*
X117785241Y-107184229D01*
X117590728Y-107406029D01*
X117426828Y-107651322D01*
X117296349Y-107915907D01*
X117201521Y-108195257D01*
X117201518Y-108195271D01*
X117143968Y-108484597D01*
X117143964Y-108484624D01*
X117124671Y-108778980D01*
X106480000Y-108778980D01*
X106480000Y-100778987D01*
X108174357Y-100778987D01*
X108174357Y-100778988D01*
X108194884Y-101000523D01*
X108194885Y-101000525D01*
X108255769Y-101214511D01*
X108255775Y-101214526D01*
X108354938Y-101413671D01*
X108354943Y-101413679D01*
X108489020Y-101591226D01*
X108653437Y-101741111D01*
X108653439Y-101741113D01*
X108842595Y-101858233D01*
X108842596Y-101858233D01*
X108842599Y-101858235D01*
X109050060Y-101938606D01*
X109268757Y-101979488D01*
X109268759Y-101979488D01*
X109491241Y-101979488D01*
X109491243Y-101979488D01*
X109709940Y-101938606D01*
X109917401Y-101858235D01*
X110106562Y-101741112D01*
X110270981Y-101591224D01*
X110405058Y-101413677D01*
X110504229Y-101214516D01*
X110565115Y-101000524D01*
X110585643Y-100778988D01*
X110583883Y-100759999D01*
X110565115Y-100557452D01*
X110565114Y-100557450D01*
X110563496Y-100551765D01*
X110504229Y-100343460D01*
X110504224Y-100343449D01*
X110405061Y-100144304D01*
X110405056Y-100144296D01*
X110270979Y-99966749D01*
X110106562Y-99816864D01*
X110106560Y-99816862D01*
X109917404Y-99699742D01*
X109917398Y-99699740D01*
X109709940Y-99619370D01*
X109491243Y-99578488D01*
X109268757Y-99578488D01*
X109050060Y-99619370D01*
X108918864Y-99670195D01*
X108842601Y-99699740D01*
X108842595Y-99699742D01*
X108653439Y-99816862D01*
X108653437Y-99816864D01*
X108489020Y-99966749D01*
X108354943Y-100144296D01*
X108354938Y-100144304D01*
X108255775Y-100343449D01*
X108255769Y-100343464D01*
X108194885Y-100557450D01*
X108194884Y-100557452D01*
X108174357Y-100778987D01*
X106480000Y-100778987D01*
X106480000Y-97155000D01*
X121649540Y-97155000D01*
X121669326Y-97343256D01*
X121669327Y-97343259D01*
X121727818Y-97523277D01*
X121727821Y-97523284D01*
X121822467Y-97687216D01*
X121920000Y-97795537D01*
X121949129Y-97827888D01*
X122102265Y-97939148D01*
X122102270Y-97939151D01*
X122275192Y-98016142D01*
X122275197Y-98016144D01*
X122460354Y-98055500D01*
X122460355Y-98055500D01*
X122649644Y-98055500D01*
X122649646Y-98055500D01*
X122834803Y-98016144D01*
X123007730Y-97939151D01*
X123117117Y-97859676D01*
X123182920Y-97836198D01*
X123250974Y-97852023D01*
X123262871Y-97859668D01*
X123358549Y-97929182D01*
X123372270Y-97939151D01*
X123545192Y-98016142D01*
X123545197Y-98016144D01*
X123730354Y-98055500D01*
X123730355Y-98055500D01*
X123919644Y-98055500D01*
X123919646Y-98055500D01*
X124104803Y-98016144D01*
X124277730Y-97939151D01*
X124279776Y-97937664D01*
X124291452Y-97929182D01*
X124357258Y-97905702D01*
X124364337Y-97905500D01*
X138107009Y-97905500D01*
X138174048Y-97925185D01*
X138219803Y-97977989D01*
X138229747Y-98047147D01*
X138200722Y-98110703D01*
X138194690Y-98117181D01*
X136577052Y-99734816D01*
X136577049Y-99734819D01*
X136547871Y-99778487D01*
X136547872Y-99778488D01*
X136494914Y-99857746D01*
X136438343Y-99994320D01*
X136438340Y-99994330D01*
X136409500Y-100139317D01*
X136409500Y-100139320D01*
X136409500Y-104313918D01*
X136409500Y-104313920D01*
X136409499Y-104313920D01*
X136438340Y-104458907D01*
X136438343Y-104458917D01*
X136494912Y-104595488D01*
X136494920Y-104595503D01*
X136525264Y-104640914D01*
X136525265Y-104640917D01*
X136525266Y-104640917D01*
X136577051Y-104718420D01*
X136577052Y-104718421D01*
X137797049Y-105938416D01*
X137901584Y-106042951D01*
X137901587Y-106042953D01*
X137901588Y-106042954D01*
X138024503Y-106125083D01*
X138024506Y-106125085D01*
X138081079Y-106148518D01*
X138081080Y-106148518D01*
X138161088Y-106181659D01*
X138277241Y-106204763D01*
X138296468Y-106208587D01*
X138306081Y-106210500D01*
X138306082Y-106210500D01*
X142898920Y-106210500D01*
X142996462Y-106191096D01*
X143043913Y-106181658D01*
X143180495Y-106125084D01*
X143229729Y-106092186D01*
X143303416Y-106042952D01*
X144297771Y-105048595D01*
X144359092Y-105015112D01*
X144359448Y-105015034D01*
X144424803Y-105001144D01*
X144597730Y-104924151D01*
X144750871Y-104812888D01*
X144877533Y-104672216D01*
X144972179Y-104508284D01*
X145030674Y-104328256D01*
X145050460Y-104140000D01*
X145030674Y-103951744D01*
X144972179Y-103771716D01*
X144877533Y-103607784D01*
X144750871Y-103467112D01*
X144750870Y-103467111D01*
X144597734Y-103355851D01*
X144597729Y-103355848D01*
X144534685Y-103327779D01*
X144481448Y-103282529D01*
X144461127Y-103215679D01*
X144480173Y-103148456D01*
X144532539Y-103102201D01*
X144585121Y-103090500D01*
X146180664Y-103090500D01*
X146247703Y-103110185D01*
X146268345Y-103126819D01*
X146383181Y-103241655D01*
X146416666Y-103302978D01*
X146419500Y-103329336D01*
X146419500Y-105557870D01*
X146419501Y-105557876D01*
X146425908Y-105617483D01*
X146476202Y-105752328D01*
X146476206Y-105752335D01*
X146562452Y-105867544D01*
X146562455Y-105867547D01*
X146677664Y-105953793D01*
X146677671Y-105953797D01*
X146812517Y-106004091D01*
X146812516Y-106004091D01*
X146819444Y-106004835D01*
X146872127Y-106010500D01*
X150467872Y-106010499D01*
X150527483Y-106004091D01*
X150662331Y-105953796D01*
X150777546Y-105867546D01*
X150863796Y-105752331D01*
X150914091Y-105617483D01*
X150920500Y-105557873D01*
X150920499Y-101962128D01*
X150914091Y-101902517D01*
X150890771Y-101839994D01*
X150863797Y-101767671D01*
X150863793Y-101767664D01*
X150777547Y-101652455D01*
X150777544Y-101652452D01*
X150662335Y-101566206D01*
X150662328Y-101566202D01*
X150527482Y-101515908D01*
X150527483Y-101515908D01*
X150467883Y-101509501D01*
X150467881Y-101509500D01*
X150467873Y-101509500D01*
X150467865Y-101509500D01*
X148239336Y-101509500D01*
X148172297Y-101489815D01*
X148151655Y-101473181D01*
X147564648Y-100886174D01*
X147564646Y-100886172D01*
X147405405Y-100770476D01*
X147384843Y-100759999D01*
X152464357Y-100759999D01*
X152464357Y-100760000D01*
X152484884Y-100981535D01*
X152484885Y-100981537D01*
X152545769Y-101195523D01*
X152545775Y-101195538D01*
X152644938Y-101394683D01*
X152644943Y-101394691D01*
X152779020Y-101572238D01*
X152943437Y-101722123D01*
X152943439Y-101722125D01*
X153132595Y-101839245D01*
X153132596Y-101839245D01*
X153132599Y-101839247D01*
X153340060Y-101919618D01*
X153558757Y-101960500D01*
X153558759Y-101960500D01*
X153781241Y-101960500D01*
X153781243Y-101960500D01*
X153999940Y-101919618D01*
X154207401Y-101839247D01*
X154396562Y-101722124D01*
X154560981Y-101572236D01*
X154695058Y-101394689D01*
X154794229Y-101195528D01*
X154855115Y-100981536D01*
X154875643Y-100760000D01*
X154856347Y-100551765D01*
X154855115Y-100538464D01*
X154855114Y-100538462D01*
X154851029Y-100524105D01*
X154794229Y-100324472D01*
X154729519Y-100194517D01*
X154695061Y-100125316D01*
X154695056Y-100125308D01*
X154560979Y-99947761D01*
X154396562Y-99797876D01*
X154396560Y-99797874D01*
X154207404Y-99680754D01*
X154207398Y-99680752D01*
X153999940Y-99600382D01*
X153781243Y-99559500D01*
X153558757Y-99559500D01*
X153340060Y-99600382D01*
X153208864Y-99651207D01*
X153132601Y-99680752D01*
X153132595Y-99680754D01*
X152943439Y-99797874D01*
X152943437Y-99797876D01*
X152779020Y-99947761D01*
X152644943Y-100125308D01*
X152644938Y-100125316D01*
X152545775Y-100324461D01*
X152545769Y-100324476D01*
X152484885Y-100538462D01*
X152484884Y-100538464D01*
X152464357Y-100759999D01*
X147384843Y-100759999D01*
X147328210Y-100731143D01*
X147230030Y-100681117D01*
X147042826Y-100620290D01*
X146848422Y-100589500D01*
X146848417Y-100589500D01*
X140298630Y-100589500D01*
X140257731Y-100580926D01*
X140257261Y-100582296D01*
X140037593Y-100506884D01*
X139888239Y-100481961D01*
X139813563Y-100469500D01*
X139586437Y-100469500D01*
X139530430Y-100478846D01*
X139362406Y-100506884D01*
X139147593Y-100580629D01*
X139147588Y-100580631D01*
X138947836Y-100688732D01*
X138947830Y-100688736D01*
X138768610Y-100828229D01*
X138768607Y-100828232D01*
X138768604Y-100828234D01*
X138768604Y-100828235D01*
X138627482Y-100981535D01*
X138614776Y-100995337D01*
X138490548Y-101185482D01*
X138399314Y-101393475D01*
X138343558Y-101613653D01*
X138324803Y-101839994D01*
X138324803Y-101840005D01*
X138343558Y-102066346D01*
X138399314Y-102286524D01*
X138490549Y-102494520D01*
X138604352Y-102668709D01*
X138624539Y-102735598D01*
X138605359Y-102802784D01*
X138574855Y-102835796D01*
X138472452Y-102912455D01*
X138386206Y-103027664D01*
X138386202Y-103027671D01*
X138335908Y-103162517D01*
X138330193Y-103215679D01*
X138329501Y-103222123D01*
X138329500Y-103222135D01*
X138329500Y-104048770D01*
X138309815Y-104115809D01*
X138257011Y-104161564D01*
X138187853Y-104171508D01*
X138124297Y-104142483D01*
X138117819Y-104136451D01*
X137946819Y-103965451D01*
X137913334Y-103904128D01*
X137910500Y-103877770D01*
X137910500Y-100575467D01*
X137930185Y-100508428D01*
X137946819Y-100487786D01*
X139792786Y-98641819D01*
X139854109Y-98608334D01*
X139880467Y-98605500D01*
X143518920Y-98605500D01*
X143616462Y-98586096D01*
X143663913Y-98576658D01*
X143800495Y-98520084D01*
X143891166Y-98459500D01*
X143891168Y-98459499D01*
X143923409Y-98437957D01*
X143923410Y-98437955D01*
X143923416Y-98437952D01*
X144932770Y-97428595D01*
X144994091Y-97395112D01*
X144994427Y-97395039D01*
X145059803Y-97381144D01*
X145232730Y-97304151D01*
X145385871Y-97192888D01*
X145512533Y-97052216D01*
X145607179Y-96888284D01*
X145665674Y-96708256D01*
X145685460Y-96520000D01*
X145665674Y-96331744D01*
X145607179Y-96151716D01*
X145512533Y-95987784D01*
X145385871Y-95847112D01*
X145385870Y-95847111D01*
X145232734Y-95735851D01*
X145232729Y-95735848D01*
X145059807Y-95658857D01*
X145059802Y-95658855D01*
X144914001Y-95627865D01*
X144874646Y-95619500D01*
X144685354Y-95619500D01*
X144652897Y-95626398D01*
X144500197Y-95658855D01*
X144500192Y-95658857D01*
X144327270Y-95735848D01*
X144327265Y-95735851D01*
X144174129Y-95847111D01*
X144047466Y-95987785D01*
X143952821Y-96151715D01*
X143952819Y-96151719D01*
X143897478Y-96322041D01*
X143867228Y-96371403D01*
X143170451Y-97068181D01*
X143109128Y-97101666D01*
X143082770Y-97104500D01*
X142571230Y-97104500D01*
X142504191Y-97084815D01*
X142458436Y-97032011D01*
X142448492Y-96962853D01*
X142477517Y-96899297D01*
X142483549Y-96892819D01*
X143388584Y-95987784D01*
X146392771Y-92983595D01*
X146454092Y-92950112D01*
X146454448Y-92950034D01*
X146519803Y-92936144D01*
X146692730Y-92859151D01*
X146845871Y-92747888D01*
X146972533Y-92607216D01*
X147067179Y-92443284D01*
X147125674Y-92263256D01*
X147145460Y-92075000D01*
X147125674Y-91886744D01*
X147067179Y-91706716D01*
X146972533Y-91542784D01*
X146845871Y-91402112D01*
X146778745Y-91353342D01*
X146692734Y-91290851D01*
X146692729Y-91290848D01*
X146519807Y-91213857D01*
X146519802Y-91213855D01*
X146374001Y-91182865D01*
X146334646Y-91174500D01*
X146145354Y-91174500D01*
X146112897Y-91181398D01*
X145960197Y-91213855D01*
X145960192Y-91213857D01*
X145787270Y-91290848D01*
X145787265Y-91290851D01*
X145634129Y-91402111D01*
X145507466Y-91542785D01*
X145412821Y-91706715D01*
X145412819Y-91706719D01*
X145357479Y-91877039D01*
X145327229Y-91926401D01*
X140885451Y-96368181D01*
X140824128Y-96401666D01*
X140797770Y-96404500D01*
X124666230Y-96404500D01*
X124599191Y-96384815D01*
X124553436Y-96332011D01*
X124543492Y-96262853D01*
X124572517Y-96199297D01*
X124578549Y-96192819D01*
X127909549Y-92861819D01*
X127970872Y-92828334D01*
X127997230Y-92825500D01*
X134270663Y-92825500D01*
X134337702Y-92845185D01*
X134343548Y-92849182D01*
X134357265Y-92859148D01*
X134357270Y-92859151D01*
X134530192Y-92936142D01*
X134530197Y-92936144D01*
X134715354Y-92975500D01*
X134715355Y-92975500D01*
X134904644Y-92975500D01*
X134904646Y-92975500D01*
X135089803Y-92936144D01*
X135262730Y-92859151D01*
X135415871Y-92747888D01*
X135542533Y-92607216D01*
X135637179Y-92443284D01*
X135695674Y-92263256D01*
X135715460Y-92075000D01*
X135695674Y-91886744D01*
X135637179Y-91706716D01*
X135542533Y-91542784D01*
X135415871Y-91402112D01*
X135348745Y-91353342D01*
X135262734Y-91290851D01*
X135262729Y-91290848D01*
X135089807Y-91213857D01*
X135089802Y-91213855D01*
X134944001Y-91182865D01*
X134904646Y-91174500D01*
X134715354Y-91174500D01*
X134682897Y-91181398D01*
X134530197Y-91213855D01*
X134530192Y-91213857D01*
X134357270Y-91290848D01*
X134357265Y-91290851D01*
X134343548Y-91300818D01*
X134277742Y-91324298D01*
X134270663Y-91324500D01*
X127561080Y-91324500D01*
X127416092Y-91353340D01*
X127416086Y-91353342D01*
X127279508Y-91409914D01*
X127279496Y-91409921D01*
X127230269Y-91442813D01*
X127156588Y-91492044D01*
X127156580Y-91492050D01*
X122402228Y-96246402D01*
X122340905Y-96279887D01*
X122340329Y-96280011D01*
X122275196Y-96293856D01*
X122275192Y-96293857D01*
X122102270Y-96370848D01*
X122102265Y-96370851D01*
X121949129Y-96482111D01*
X121822466Y-96622785D01*
X121727821Y-96786715D01*
X121727818Y-96786722D01*
X121670590Y-96962853D01*
X121669326Y-96966744D01*
X121649540Y-97155000D01*
X106480000Y-97155000D01*
X106480000Y-90170000D01*
X129269540Y-90170000D01*
X129289326Y-90358256D01*
X129289327Y-90358259D01*
X129347818Y-90538277D01*
X129347821Y-90538284D01*
X129442467Y-90702216D01*
X129569129Y-90842888D01*
X129722265Y-90954148D01*
X129722270Y-90954151D01*
X129895192Y-91031142D01*
X129895197Y-91031144D01*
X130080354Y-91070500D01*
X130080355Y-91070500D01*
X130269644Y-91070500D01*
X130269646Y-91070500D01*
X130454803Y-91031144D01*
X130627730Y-90954151D01*
X130780871Y-90842888D01*
X130907533Y-90702216D01*
X131002179Y-90538284D01*
X131060674Y-90358256D01*
X131080460Y-90170000D01*
X131063603Y-90009615D01*
X139065358Y-90009615D01*
X139085144Y-90197871D01*
X139085145Y-90197874D01*
X139143636Y-90377892D01*
X139143639Y-90377899D01*
X139238285Y-90541831D01*
X139364947Y-90682503D01*
X139518083Y-90793763D01*
X139518088Y-90793766D01*
X139691010Y-90870757D01*
X139691015Y-90870759D01*
X139876172Y-90910115D01*
X139876173Y-90910115D01*
X140065462Y-90910115D01*
X140065464Y-90910115D01*
X140250621Y-90870759D01*
X140423548Y-90793766D01*
X140576689Y-90682503D01*
X140703351Y-90541831D01*
X140797997Y-90377899D01*
X140856492Y-90197871D01*
X140876278Y-90009615D01*
X140856492Y-89821359D01*
X140797997Y-89641331D01*
X140764408Y-89583152D01*
X140747795Y-89521152D01*
X140747795Y-86413186D01*
X140764408Y-86351186D01*
X140824474Y-86247149D01*
X140882969Y-86067121D01*
X140902755Y-85878865D01*
X140882969Y-85690609D01*
X140824474Y-85510581D01*
X140729828Y-85346649D01*
X140603166Y-85205977D01*
X140603165Y-85205976D01*
X140450029Y-85094716D01*
X140450024Y-85094713D01*
X140277102Y-85017722D01*
X140277097Y-85017720D01*
X140131296Y-84986730D01*
X140091941Y-84978365D01*
X139902649Y-84978365D01*
X139870192Y-84985263D01*
X139717492Y-85017720D01*
X139717487Y-85017722D01*
X139544565Y-85094713D01*
X139544560Y-85094716D01*
X139391424Y-85205976D01*
X139264761Y-85346650D01*
X139170116Y-85510580D01*
X139170113Y-85510587D01*
X139111622Y-85690605D01*
X139111621Y-85690609D01*
X139091835Y-85878865D01*
X139111621Y-86067121D01*
X139111622Y-86067124D01*
X139170113Y-86247142D01*
X139170116Y-86247149D01*
X139230182Y-86351186D01*
X139246795Y-86413186D01*
X139246795Y-89429434D01*
X139230182Y-89491434D01*
X139143639Y-89641330D01*
X139143636Y-89641337D01*
X139091527Y-89801714D01*
X139085144Y-89821359D01*
X139065358Y-90009615D01*
X131063603Y-90009615D01*
X131060674Y-89981744D01*
X131002179Y-89801716D01*
X130942113Y-89697677D01*
X130925500Y-89635677D01*
X130925500Y-84182229D01*
X130945185Y-84115190D01*
X130961819Y-84094548D01*
X132989548Y-82066819D01*
X133050871Y-82033334D01*
X133077229Y-82030500D01*
X147715500Y-82030500D01*
X147782539Y-82050185D01*
X147828294Y-82102989D01*
X147839500Y-82154500D01*
X147839500Y-92783918D01*
X147839500Y-92783920D01*
X147839499Y-92783920D01*
X147868340Y-92928907D01*
X147868343Y-92928917D01*
X147924914Y-93065492D01*
X147957812Y-93114727D01*
X147957813Y-93114730D01*
X148007046Y-93188414D01*
X148007052Y-93188421D01*
X148312228Y-93493596D01*
X148342478Y-93542958D01*
X148397819Y-93713280D01*
X148397821Y-93713284D01*
X148492467Y-93877216D01*
X148619129Y-94017888D01*
X148772265Y-94129148D01*
X148772270Y-94129151D01*
X148945192Y-94206142D01*
X148945197Y-94206144D01*
X149130354Y-94245500D01*
X149130355Y-94245500D01*
X149319644Y-94245500D01*
X149319646Y-94245500D01*
X149504803Y-94206144D01*
X149677730Y-94129151D01*
X149830871Y-94017888D01*
X149957533Y-93877216D01*
X150052179Y-93713284D01*
X150110674Y-93533256D01*
X150130460Y-93345000D01*
X150110674Y-93156744D01*
X150052179Y-92976716D01*
X149957533Y-92812784D01*
X149830871Y-92672112D01*
X149830870Y-92672111D01*
X149677734Y-92560851D01*
X149677729Y-92560848D01*
X149504807Y-92483857D01*
X149504803Y-92483856D01*
X149439670Y-92470011D01*
X149378188Y-92436818D01*
X149377771Y-92436402D01*
X149376819Y-92435450D01*
X149343334Y-92374127D01*
X149340500Y-92347769D01*
X149340500Y-81206079D01*
X149311659Y-81061092D01*
X149311658Y-81061091D01*
X149311658Y-81061087D01*
X149311656Y-81061082D01*
X149255087Y-80924511D01*
X149255080Y-80924498D01*
X149172951Y-80801584D01*
X149172948Y-80801580D01*
X149068419Y-80697051D01*
X149068415Y-80697048D01*
X148945501Y-80614919D01*
X148945488Y-80614912D01*
X148808917Y-80558343D01*
X148808907Y-80558340D01*
X148663920Y-80529500D01*
X148663918Y-80529500D01*
X132641082Y-80529500D01*
X132641080Y-80529500D01*
X132496092Y-80558340D01*
X132496082Y-80558343D01*
X132359511Y-80614912D01*
X132359498Y-80614919D01*
X132236584Y-80697048D01*
X132236580Y-80697051D01*
X129592050Y-83341580D01*
X129592044Y-83341588D01*
X129542812Y-83415268D01*
X129542813Y-83415269D01*
X129509921Y-83464496D01*
X129509914Y-83464508D01*
X129453342Y-83601086D01*
X129453340Y-83601092D01*
X129424500Y-83746079D01*
X129424500Y-89635677D01*
X129407887Y-89697677D01*
X129347821Y-89801714D01*
X129289327Y-89981740D01*
X129289326Y-89981744D01*
X129269540Y-90170000D01*
X106480000Y-90170000D01*
X106480000Y-74391577D01*
X108814500Y-74391577D01*
X108814500Y-75388422D01*
X108845290Y-75582826D01*
X108906117Y-75770029D01*
X108995476Y-75945405D01*
X109111172Y-76104646D01*
X109250354Y-76243828D01*
X109409595Y-76359524D01*
X109492455Y-76401743D01*
X109584970Y-76448882D01*
X109584972Y-76448882D01*
X109584975Y-76448884D01*
X109607624Y-76456243D01*
X109772173Y-76509709D01*
X109966578Y-76540500D01*
X109966583Y-76540500D01*
X110163422Y-76540500D01*
X110357826Y-76509709D01*
X110545025Y-76448884D01*
X110720405Y-76359524D01*
X110879646Y-76243828D01*
X111018828Y-76104646D01*
X111134524Y-75945405D01*
X111223884Y-75770025D01*
X111284709Y-75582826D01*
X111296590Y-75507812D01*
X111315500Y-75388422D01*
X111315500Y-74391577D01*
X111284709Y-74197173D01*
X111229833Y-74028284D01*
X111223884Y-74009975D01*
X111223882Y-74009972D01*
X111223882Y-74009970D01*
X111141486Y-73848259D01*
X111134524Y-73834595D01*
X111018828Y-73675354D01*
X110879646Y-73536172D01*
X110720405Y-73420476D01*
X110545029Y-73331117D01*
X110357826Y-73270290D01*
X110163422Y-73239500D01*
X110163417Y-73239500D01*
X109966583Y-73239500D01*
X109966578Y-73239500D01*
X109772173Y-73270290D01*
X109584970Y-73331117D01*
X109409594Y-73420476D01*
X109339031Y-73471744D01*
X109250354Y-73536172D01*
X109250352Y-73536174D01*
X109250351Y-73536174D01*
X109111174Y-73675351D01*
X109111174Y-73675352D01*
X109111172Y-73675354D01*
X109061485Y-73743741D01*
X108995476Y-73834594D01*
X108906117Y-74009970D01*
X108845290Y-74197173D01*
X108814500Y-74391577D01*
X106480000Y-74391577D01*
X106480000Y-70489983D01*
X115089500Y-70489983D01*
X115089500Y-71790001D01*
X115089501Y-71790018D01*
X115100000Y-71892796D01*
X115100001Y-71892799D01*
X115155185Y-72059331D01*
X115155187Y-72059336D01*
X115247289Y-72208657D01*
X115371344Y-72332712D01*
X115526120Y-72428178D01*
X115572845Y-72480126D01*
X115584068Y-72549088D01*
X115556224Y-72613171D01*
X115548706Y-72621398D01*
X115409889Y-72760215D01*
X115284951Y-72932179D01*
X115188444Y-73121585D01*
X115122753Y-73323760D01*
X115089500Y-73533713D01*
X115089500Y-73746286D01*
X115103486Y-73834594D01*
X115122754Y-73956243D01*
X115179965Y-74132321D01*
X115188444Y-74158414D01*
X115284951Y-74347820D01*
X115409890Y-74519786D01*
X115560209Y-74670105D01*
X115560214Y-74670109D01*
X115724793Y-74789682D01*
X115767459Y-74845011D01*
X115773438Y-74914625D01*
X115740833Y-74976420D01*
X115724793Y-74990318D01*
X115560214Y-75109890D01*
X115560209Y-75109894D01*
X115409890Y-75260213D01*
X115284951Y-75432179D01*
X115188444Y-75621585D01*
X115122753Y-75823760D01*
X115089500Y-76033713D01*
X115089500Y-76246287D01*
X115122754Y-76456243D01*
X115172341Y-76608856D01*
X115188444Y-76658414D01*
X115284951Y-76847820D01*
X115409890Y-77019786D01*
X115560209Y-77170105D01*
X115560214Y-77170109D01*
X115724793Y-77289682D01*
X115767459Y-77345011D01*
X115773438Y-77414625D01*
X115740833Y-77476420D01*
X115724793Y-77490318D01*
X115560214Y-77609890D01*
X115560209Y-77609894D01*
X115409890Y-77760213D01*
X115284951Y-77932179D01*
X115188444Y-78121585D01*
X115122753Y-78323760D01*
X115089500Y-78533713D01*
X115089500Y-78746286D01*
X115122753Y-78956239D01*
X115188444Y-79158414D01*
X115284951Y-79347820D01*
X115409890Y-79519786D01*
X115560213Y-79670109D01*
X115732179Y-79795048D01*
X115732181Y-79795049D01*
X115732184Y-79795051D01*
X115921588Y-79891557D01*
X116123757Y-79957246D01*
X116333713Y-79990500D01*
X116333714Y-79990500D01*
X116796286Y-79990500D01*
X116796287Y-79990500D01*
X117006243Y-79957246D01*
X117208412Y-79891557D01*
X117397816Y-79795051D01*
X117419789Y-79779086D01*
X117569786Y-79670109D01*
X117569788Y-79670106D01*
X117569792Y-79670104D01*
X117720104Y-79519792D01*
X117720108Y-79519786D01*
X117776903Y-79441615D01*
X117832233Y-79398949D01*
X117877221Y-79390500D01*
X130348920Y-79390500D01*
X130446462Y-79371096D01*
X130493913Y-79361658D01*
X130630495Y-79305084D01*
X130695207Y-79261845D01*
X130753416Y-79222952D01*
X132027952Y-77948416D01*
X132077186Y-77874729D01*
X132110084Y-77825495D01*
X132166658Y-77688913D01*
X132195500Y-77543918D01*
X132195500Y-74194321D01*
X132212113Y-74132321D01*
X132272179Y-74028284D01*
X132330674Y-73848256D01*
X132350460Y-73660000D01*
X132330674Y-73471744D01*
X132272179Y-73291716D01*
X132177533Y-73127784D01*
X132050871Y-72987112D01*
X132050870Y-72987111D01*
X131897734Y-72875851D01*
X131897729Y-72875848D01*
X131724807Y-72798857D01*
X131724802Y-72798855D01*
X131579001Y-72767865D01*
X131539646Y-72759500D01*
X131350354Y-72759500D01*
X131317897Y-72766398D01*
X131165197Y-72798855D01*
X131165192Y-72798857D01*
X130992270Y-72875848D01*
X130992265Y-72875851D01*
X130839129Y-72987111D01*
X130712466Y-73127785D01*
X130617821Y-73291715D01*
X130617818Y-73291722D01*
X130575984Y-73420476D01*
X130559326Y-73471744D01*
X130539540Y-73660000D01*
X130559326Y-73848256D01*
X130559327Y-73848259D01*
X130617818Y-74028277D01*
X130617821Y-74028284D01*
X130677887Y-74132321D01*
X130694500Y-74194321D01*
X130694500Y-77107769D01*
X130674815Y-77174808D01*
X130658180Y-77195451D01*
X130604612Y-77249018D01*
X130543289Y-77282502D01*
X130473597Y-77277517D01*
X130417664Y-77235646D01*
X130399001Y-77199654D01*
X130397635Y-77195451D01*
X130367179Y-77101716D01*
X130272533Y-76937784D01*
X130145871Y-76797112D01*
X130145870Y-76797111D01*
X129992734Y-76685851D01*
X129992729Y-76685848D01*
X129819807Y-76608857D01*
X129819803Y-76608856D01*
X129754669Y-76595011D01*
X129693188Y-76561818D01*
X129692770Y-76561402D01*
X128688421Y-75557052D01*
X128688414Y-75557046D01*
X128614729Y-75507812D01*
X128614729Y-75507813D01*
X128565491Y-75474913D01*
X128428917Y-75418343D01*
X128428907Y-75418340D01*
X128283920Y-75389500D01*
X128283918Y-75389500D01*
X117877221Y-75389500D01*
X117810182Y-75369815D01*
X117776903Y-75338385D01*
X117720107Y-75260211D01*
X117569792Y-75109896D01*
X117569784Y-75109890D01*
X117405204Y-74990316D01*
X117362540Y-74934989D01*
X117356561Y-74865376D01*
X117389166Y-74803580D01*
X117405199Y-74789686D01*
X117569792Y-74670104D01*
X117720104Y-74519792D01*
X117720106Y-74519788D01*
X117720109Y-74519786D01*
X117845048Y-74347820D01*
X117845047Y-74347820D01*
X117845051Y-74347816D01*
X117941557Y-74158412D01*
X118007246Y-73956243D01*
X118040500Y-73746287D01*
X118040500Y-73533713D01*
X118007246Y-73323757D01*
X117941557Y-73121588D01*
X117845051Y-72932184D01*
X117845049Y-72932181D01*
X117845048Y-72932179D01*
X117720109Y-72760213D01*
X117581294Y-72621398D01*
X117547809Y-72560075D01*
X117552793Y-72490383D01*
X117594665Y-72434450D01*
X117603879Y-72428178D01*
X117609331Y-72424814D01*
X117609334Y-72424814D01*
X117758656Y-72332712D01*
X117882712Y-72208656D01*
X117974814Y-72059334D01*
X118029999Y-71892797D01*
X118040500Y-71790009D01*
X118040499Y-70489992D01*
X118029999Y-70387203D01*
X117974814Y-70220666D01*
X117882712Y-70071344D01*
X117758656Y-69947288D01*
X117609334Y-69855186D01*
X117442797Y-69800001D01*
X117442795Y-69800000D01*
X117340010Y-69789500D01*
X115789998Y-69789500D01*
X115789981Y-69789501D01*
X115687203Y-69800000D01*
X115687200Y-69800001D01*
X115520668Y-69855185D01*
X115520663Y-69855187D01*
X115371342Y-69947289D01*
X115247289Y-70071342D01*
X115155187Y-70220663D01*
X115155186Y-70220666D01*
X115100001Y-70387203D01*
X115100001Y-70387204D01*
X115100000Y-70387204D01*
X115089500Y-70489983D01*
X106480000Y-70489983D01*
X106480000Y-66124000D01*
X106499685Y-66056961D01*
X106552489Y-66011206D01*
X106604000Y-66000000D01*
X157156000Y-66000000D01*
X157223039Y-66019685D01*
G37*
%TD.AperFunction*%
%TD*%
M02*
