M48
; DRILL file {KiCad 8.0.3} date 2024-10-02T02:13:26+0900
; FORMAT={-:-/ absolute / metric / decimal}
; #@! TF.CreationDate,2024-10-02T02:13:26+09:00
; #@! TF.GenerationSoftware,Kicad,Pcbnew,8.0.3
; #@! TF.FileFunction,MixedPlating,1,2
FMAT,2
METRIC
; #@! TA.AperFunction,Plated,PTH,ViaDrill
T1C0.400
; #@! TA.AperFunction,Plated,PTH,ComponentDrill
T2C0.950
; #@! TA.AperFunction,Plated,PTH,ComponentDrill
T3C1.000
; #@! TA.AperFunction,Plated,PTH,ComponentDrill
T4C1.160
; #@! TA.AperFunction,Plated,PTH,ComponentDrill
T5C1.900
; #@! TA.AperFunction,NonPlated,NPTH,ComponentDrill
T6C2.000
%
G90
G05
T1
X109.22Y-104.14
X109.22Y-109.22
X109.22Y-114.3
X111.76Y-106.68
X111.76Y-111.76
X114.3Y-93.98
X114.3Y-99.06
X114.3Y-109.22
X114.3Y-114.3
X116.84Y-91.44
X116.84Y-96.52
X116.84Y-101.6
X116.84Y-111.76
X119.38Y-88.9
X119.38Y-93.98
X119.38Y-99.06
X119.38Y-114.3
X121.92Y-91.44
X122.555Y-97.155
X123.825Y-97.155
X129.54Y-77.47
X129.54Y-93.98
X130.175Y-90.17
X131.445Y-73.66
X134.81Y-92.075
X137.16Y-91.44
X139.065Y-79.375
X139.7Y-74.295
X139.7Y-93.98
X139.971Y-90.01
X139.997Y-85.879
X140.97Y-77.47
X141.605Y-79.375
X142.24Y-91.44
X144.145Y-104.14
X144.78Y-96.52
X144.78Y-114.3
X146.24Y-92.075
X149.225Y-93.345
X149.86Y-96.52
X149.86Y-99.06
X149.86Y-114.3
X152.4Y-81.28
X152.4Y-86.36
X152.4Y-91.44
X154.94Y-78.74
X154.94Y-83.82
X154.94Y-88.9
X154.94Y-93.98
X154.94Y-99.06
X154.94Y-104.14
X154.94Y-109.22
X154.94Y-114.3
T2
X116.565Y-71.14
X116.565Y-73.64
X116.565Y-76.14
X116.565Y-78.64
T3
X109.38Y-100.779
X109.38Y-111.779
X153.67Y-100.76
X153.67Y-111.76
T4
X127.0Y-99.54
X127.0Y-101.84
X127.0Y-104.14
X127.0Y-109.7
X127.0Y-112.0
X127.0Y-114.3
X139.7Y-99.54
X139.7Y-101.84
X139.7Y-104.14
X139.7Y-109.7
X139.7Y-112.0
X139.7Y-114.3
T5
X119.38Y-103.779
X119.38Y-108.779
X148.67Y-103.76
X148.67Y-108.76
T6
G00X110.065Y-74.49
M15
G01X110.065Y-75.29
M16
G05
M30
